<?xml version="1.0" encoding="utf-8"?>
<!-- Generator: Adobe Illustrator 16.0.0, SVG Export Plug-In . SVG Version: 6.00 Build 0)  -->
<!DOCTYPE svg PUBLIC "-//W3C//DTD SVG 1.1//EN" "http://www.w3.org/Graphics/SVG/1.1/DTD/svg11.dtd">
<svg version="1.1" id="Layer_1" xmlns="http://www.w3.org/2000/svg" xmlns:xlink="http://www.w3.org/1999/xlink" x="0px" y="0px"
	 width="208px" height="77px" viewBox="0 0 208 77" enable-background="new 0 0 208 77" xml:space="preserve">
<g>
	<g>
		<path fill="#ffffff" d="M6.797,31.598c1.409-0.027,2.57,0.215,3.486,0.725c0.914,0.512,1.638,1.188,2.175,2.035
			c0.15,0.229,0.271,0.461,0.364,0.697c0.095,0.235,0.185,0.493,0.264,0.776c0.026,0.092,0.052,0.2,0.082,0.322
			c0.029,0.12,0.018,0.236-0.024,0.343c-0.026,0.08-0.074,0.131-0.147,0.153c-0.074,0.019-0.158,0.043-0.253,0.068H12.58
			c-0.079,0.027-0.168,0.039-0.269,0.03c-0.103-0.006-0.2-0.01-0.295-0.01c-0.121,0-0.263,0.004-0.432,0.01
			c-0.168,0.009-0.334,0.009-0.495,0c-0.163-0.006-0.311-0.021-0.442-0.041c-0.137-0.021-0.237-0.051-0.306-0.09
			c-0.105-0.094-0.184-0.223-0.242-0.382c-0.049-0.162-0.121-0.304-0.2-0.426c-0.255-0.442-0.59-0.791-1.008-1.048
			c-0.282-0.175-0.598-0.316-0.945-0.423c-0.232-0.08-0.516-0.121-0.859-0.121c-0.342,0-0.642,0.033-0.895,0.101
			c-0.11,0.028-0.205,0.051-0.292,0.072c-0.087,0.018-0.182,0.048-0.274,0.089c-0.913,0.391-1.559,1.035-1.935,1.937
			c-0.068,0.16-0.127,0.329-0.182,0.504s-0.113,0.355-0.181,0.544c-0.011,0.095-0.026,0.183-0.042,0.261
			c-0.01,0.083-0.026,0.168-0.037,0.263c-0.026,0.08-0.037,0.167-0.032,0.254c0.01,0.088,0,0.177-0.029,0.271
			c-0.029,0.105-0.04,0.218-0.032,0.332c0.009,0.113,0.011,0.225,0.011,0.332c0,0.054-0.002,0.109-0.011,0.161
			c-0.007,0.055-0.002,0.11,0.011,0.163v0.18c0.029,0.067,0.037,0.136,0.029,0.204c-0.005,0.065,0.005,0.132,0.034,0.2
			c0,0.081,0.01,0.189,0.037,0.321c0.029,0.149,0.055,0.284,0.082,0.416c0.026,0.126,0.061,0.25,0.103,0.369
			c0.187,0.566,0.429,1.048,0.724,1.444c0.295,0.399,0.685,0.721,1.169,0.979c0.148,0.068,0.303,0.12,0.464,0.168
			c0.163,0.048,0.337,0.101,0.527,0.153c0.063,0.01,0.131,0.021,0.189,0.031c0.061,0.006,0.124,0.011,0.189,0.011h0.164
			c0.068,0.026,0.155,0.036,0.263,0.026c0.105-0.006,0.195-0.016,0.264-0.026c0.079,0,0.137-0.011,0.179-0.021
			c0.161-0.026,0.311-0.053,0.453-0.079c0.143-0.031,0.279-0.079,0.414-0.143c0.308-0.136,0.574-0.31,0.798-0.537
			c0.221-0.221,0.416-0.473,0.595-0.754c0.079-0.137,0.145-0.284,0.2-0.445c0.053-0.16,0.117-0.323,0.18-0.481
			c0.042-0.15,0.082-0.285,0.121-0.405c0.042-0.121,0.129-0.217,0.266-0.282c0.077-0.029,0.179-0.04,0.3-0.04
			c0.122,0,0.234,0,0.342,0h1.229c0.122,0,0.248,0,0.375,0c0.126,0,0.232,0.027,0.313,0.08c0.092,0.068,0.145,0.174,0.15,0.321
			c0.008,0.151-0.01,0.289-0.05,0.426l-0.124,0.543c-0.063,0.205-0.132,0.396-0.189,0.586c-0.061,0.189-0.137,0.369-0.232,0.548
			c-0.066,0.105-0.121,0.21-0.161,0.311s-0.095,0.194-0.161,0.289c-0.743,1.159-1.817,1.965-3.229,2.424
			c-0.145,0.052-0.295,0.089-0.442,0.12c-0.147,0.027-0.295,0.053-0.442,0.08c-0.069,0.025-0.132,0.036-0.192,0.03
			c-0.061-0.01-0.124,0.006-0.193,0.027c-0.092,0-0.184,0.005-0.273,0.011c-0.084,0.01-0.174,0.021-0.269,0.03H7.039
			c-0.121,0-0.242,0-0.364,0c-0.121,0-0.237-0.01-0.342-0.041c-0.042-0.012-0.111-0.017-0.206-0.017
			c-0.092-0.016-0.189-0.025-0.282-0.041c-0.092-0.012-0.192-0.027-0.303-0.043c-0.131-0.037-0.263-0.074-0.392-0.1
			c-0.129-0.027-0.258-0.058-0.393-0.101c-0.121-0.042-0.242-0.084-0.363-0.131c-0.121-0.048-0.237-0.096-0.342-0.148
			c-0.806-0.353-1.491-0.821-2.049-1.4c-0.553-0.59-1.008-1.28-1.359-2.092c-0.079-0.201-0.147-0.401-0.2-0.601
			c-0.053-0.206-0.116-0.411-0.184-0.627c-0.026-0.068-0.037-0.126-0.037-0.174c0-0.045-0.008-0.095-0.021-0.147
			c-0.026-0.124-0.047-0.253-0.061-0.385c-0.013-0.137-0.034-0.264-0.061-0.385c-0.026-0.065-0.037-0.12-0.031-0.171
			c0.007-0.045,0.005-0.098-0.011-0.15v-0.384C0.013,39.413,0,39.311,0,39.177c0-0.133,0.013-0.234,0.04-0.302
			c0.016-0.042,0.018-0.085,0.011-0.132c-0.005-0.046-0.011-0.082-0.011-0.11v-0.182c0.029-0.106,0.045-0.223,0.052-0.343
			c0.006-0.121,0.016-0.24,0.026-0.362c0.032-0.107,0.05-0.213,0.063-0.312c0.013-0.102,0.034-0.206,0.058-0.313
			c0.058-0.187,0.103-0.372,0.145-0.553c0.04-0.182,0.093-0.354,0.161-0.515c0.069-0.176,0.137-0.351,0.211-0.525
			c0.074-0.173,0.158-0.334,0.252-0.482c0.216-0.378,0.437-0.712,0.664-1.01c0.068-0.093,0.142-0.18,0.221-0.261
			c0.084-0.08,0.163-0.16,0.242-0.242c0.337-0.336,0.69-0.622,1.059-0.857c0.368-0.234,0.79-0.447,1.264-0.634
			c0.158-0.068,0.33-0.124,0.5-0.17c0.174-0.05,0.358-0.094,0.542-0.134c0.084-0.026,0.164-0.04,0.245-0.04s0.155-0.014,0.224-0.039
			c0.105-0.014,0.211-0.023,0.311-0.032c0.1-0.005,0.205-0.017,0.313-0.028c0.024-0.015,0.061-0.015,0.1,0
			C6.733,31.609,6.771,31.609,6.797,31.598z"/>
		<path fill="#ffffff" d="M29.054,38.633c0.026,0.081,0.042,0.219,0.053,0.414c0.005,0.194-0.005,0.332-0.032,0.412v0.263
			c-0.029,0.132-0.042,0.276-0.042,0.424c0,0.15-0.011,0.295-0.04,0.442c-0.029,0.098-0.05,0.189-0.061,0.282
			c-0.013,0.097-0.034,0.189-0.058,0.284c-0.068,0.242-0.132,0.477-0.194,0.706c-0.061,0.226-0.137,0.447-0.229,0.663
			c-0.406,0.943-0.951,1.724-1.635,2.35c-0.687,0.628-1.533,1.107-2.539,1.444c-0.149,0.052-0.297,0.089-0.442,0.12
			c-0.153,0.027-0.3,0.053-0.448,0.08c-0.068,0.025-0.137,0.041-0.21,0.041c-0.074,0-0.143,0.005-0.211,0.017l-0.667,0.063
			c-0.052,0.01-0.147,0.015-0.281,0.01c-0.137-0.005-0.221-0.021-0.264-0.032c-0.065-0.01-0.132-0.015-0.189-0.01
			c-0.063,0.01-0.126,0.005-0.19-0.011h-0.224c-0.108-0.026-0.21-0.042-0.303-0.048c-0.095-0.01-0.195-0.025-0.305-0.052
			c-0.105-0.026-0.211-0.048-0.321-0.068c-0.105-0.021-0.216-0.043-0.321-0.074c-0.148-0.052-0.3-0.104-0.453-0.157
			c-0.155-0.053-0.305-0.116-0.453-0.186c-0.808-0.347-1.49-0.816-2.049-1.4c-0.558-0.584-1.011-1.279-1.358-2.087
			c-0.084-0.188-0.148-0.385-0.203-0.596c-0.053-0.207-0.116-0.415-0.181-0.631c-0.026-0.069-0.042-0.127-0.042-0.175
			c0-0.044-0.005-0.097-0.021-0.152c-0.027-0.095-0.042-0.189-0.058-0.29c-0.013-0.1-0.034-0.205-0.058-0.312
			c-0.016-0.066-0.021-0.132-0.013-0.192c0.008-0.058-0.003-0.116-0.029-0.169c-0.016-0.081-0.016-0.166,0-0.254
			c0.013-0.086,0.013-0.171,0-0.251c-0.026-0.067-0.042-0.172-0.042-0.312c0-0.142,0.016-0.246,0.042-0.313
			c0.013-0.067,0.013-0.132,0-0.191c-0.016-0.06-0.016-0.123,0-0.19V38.37c0.026-0.092,0.037-0.186,0.029-0.271
			c-0.008-0.089,0.005-0.17,0.029-0.252c0.029-0.066,0.042-0.137,0.042-0.212c0-0.074,0.016-0.142,0.04-0.212
			c0.071-0.228,0.124-0.453,0.161-0.675c0.042-0.222,0.102-0.438,0.184-0.656c0.105-0.227,0.206-0.456,0.3-0.684
			c0.095-0.229,0.211-0.444,0.345-0.646c0.403-0.645,0.866-1.184,1.388-1.612c0.527-0.43,1.164-0.799,1.917-1.108
			c0.174-0.068,0.361-0.122,0.553-0.161c0.198-0.043,0.39-0.089,0.575-0.143c0.071-0.026,0.131-0.04,0.195-0.04
			c0.061,0,0.121-0.007,0.192-0.021l0.603-0.061c0.026-0.013,0.066-0.013,0.11,0c0.048,0.015,0.084,0.015,0.111,0
			c0.956-0.024,1.78,0.071,2.481,0.292c0.7,0.223,1.322,0.529,1.875,0.92c0.174,0.119,0.355,0.257,0.548,0.412
			c0.185,0.154,0.342,0.312,0.461,0.473c0.066,0.069,0.134,0.139,0.203,0.212c0.063,0.076,0.126,0.146,0.179,0.211
			c0.15,0.218,0.295,0.436,0.442,0.656c0.153,0.223,0.279,0.461,0.387,0.717c0.082,0.189,0.15,0.368,0.213,0.544
			c0.055,0.175,0.121,0.363,0.187,0.564c0.042,0.134,0.076,0.272,0.102,0.413c0.027,0.142,0.064,0.286,0.101,0.434
			c0.026,0.095,0.042,0.186,0.042,0.272c0,0.088,0.011,0.171,0.037,0.251s0.037,0.167,0.031,0.254
			c-0.007,0.088-0.005,0.164,0.011,0.231V38.633z M25.928,39.479c0.029-0.066,0.04-0.163,0.04-0.291s-0.01-0.227-0.04-0.294v-0.342
			c-0.013-0.053-0.018-0.104-0.008-0.153c0.005-0.046-0.005-0.096-0.031-0.149c-0.026-0.107-0.042-0.211-0.05-0.313
			c-0.008-0.101-0.023-0.197-0.05-0.29c0-0.07-0.016-0.144-0.042-0.224c-0.04-0.147-0.079-0.295-0.119-0.442
			c-0.042-0.149-0.094-0.296-0.163-0.446c-0.295-0.684-0.719-1.238-1.277-1.662c-0.558-0.422-1.337-0.633-2.331-0.633
			c-0.029,0.012-0.058,0.015-0.092,0.008c-0.032-0.004-0.063-0.001-0.09,0.012c-0.053,0.012-0.11,0.017-0.163,0.01
			s-0.11,0.002-0.179,0.028c-0.148,0.029-0.292,0.06-0.432,0.094c-0.145,0.031-0.274,0.077-0.395,0.129
			c-0.566,0.242-1.011,0.578-1.343,1.008c-0.332,0.432-0.595,0.95-0.796,1.555c-0.042,0.146-0.071,0.292-0.089,0.433
			c-0.021,0.142-0.053,0.286-0.092,0.433c-0.014,0.054-0.019,0.105-0.019,0.151c0,0.049-0.008,0.099-0.021,0.151
			c-0.027,0.068-0.034,0.141-0.021,0.223c0.016,0.08,0.016,0.154,0,0.221c-0.026,0.067-0.042,0.193-0.049,0.373
			c-0.008,0.182,0.002,0.307,0.029,0.373v0.222c0.015,0.055,0.021,0.112,0.021,0.171c0,0.063,0.008,0.118,0.021,0.174
			c0,0.053,0.002,0.103,0.011,0.147c0.005,0.047,0.01,0.1,0.01,0.152c0.04,0.147,0.068,0.296,0.089,0.442
			c0.021,0.147,0.058,0.29,0.11,0.427c0.148,0.427,0.33,0.827,0.545,1.195c0.213,0.37,0.484,0.671,0.806,0.902
			c0.066,0.063,0.14,0.116,0.213,0.158s0.147,0.084,0.232,0.121c0.145,0.095,0.305,0.169,0.474,0.222
			c0.168,0.053,0.345,0.11,0.532,0.163c0.068,0.025,0.132,0.037,0.195,0.031c0.058-0.011,0.124-0.006,0.189,0.011
			c0.08,0.026,0.164,0.036,0.243,0.036s0.168,0,0.263,0h0.158c0.069-0.01,0.126-0.016,0.185-0.01c0.053,0.01,0.11,0,0.179-0.026
			c0.137-0.032,0.269-0.053,0.406-0.074c0.131-0.021,0.26-0.058,0.379-0.11c0.579-0.227,1.035-0.521,1.364-0.885
			c0.326-0.364,0.605-0.833,0.832-1.413c0.073-0.147,0.121-0.308,0.155-0.484c0.034-0.174,0.076-0.348,0.131-0.521l0.058-0.485
			c0.013-0.056,0.021-0.11,0.021-0.174c0-0.059,0-0.123,0-0.191V39.479z"/>
		<path fill="#ffffff" d="M31.816,31.94h1.712c0.15,0,0.295,0.004,0.435,0.007c0.143,0.007,0.247,0.059,0.313,0.153
			s0.103,0.219,0.103,0.372c0,0.155,0,0.319,0,0.495v1.835v6.108v1.19c0,0.105-0.005,0.211-0.011,0.312
			c-0.005,0.1,0.002,0.196,0.026,0.29v0.206c0,0.09,0.005,0.184,0.014,0.273c0.002,0.085,0.023,0.164,0.049,0.227
			c0.093,0.18,0.282,0.264,0.564,0.264c0.284,0,0.559,0,0.826,0h3.914c0.105,0,0.24-0.005,0.4-0.011
			c0.163-0.005,0.316-0.005,0.463,0c0.147,0.006,0.287,0.026,0.414,0.053c0.129,0.026,0.213,0.068,0.256,0.121
			c0.062,0.079,0.1,0.179,0.1,0.301c0,0.121,0,0.252,0,0.385v0.927c0,0.11,0.002,0.21,0.011,0.305
			c0.005,0.09-0.006,0.175-0.032,0.242c-0.053,0.105-0.122,0.18-0.203,0.222c-0.066,0.053-0.167,0.079-0.3,0.079
			c-0.135,0-0.266,0-0.385,0h-1.43h-5.464H32.14c-0.189,0-0.353-0.011-0.495-0.031c-0.142-0.021-0.248-0.085-0.313-0.19
			c-0.055-0.079-0.082-0.184-0.082-0.315c0-0.127,0-0.248,0-0.369v-1.411v-5.346v-4.557v-1.27c0-0.121,0.005-0.242,0.011-0.362
			c0.007-0.122,0.031-0.217,0.071-0.282c0.055-0.096,0.161-0.162,0.324-0.202c0.026-0.013,0.053-0.016,0.079-0.013
			C31.761,31.954,31.787,31.952,31.816,31.94z"/>
		<path fill="#ffffff" d="M43.771,31.94h1.714c0.147,0,0.292,0.004,0.435,0.007c0.139,0.007,0.245,0.059,0.311,0.153
			s0.103,0.219,0.103,0.372c0,0.155,0,0.319,0,0.495v1.835v6.108v1.19c0,0.105-0.005,0.211-0.011,0.312
			c-0.01,0.1,0.003,0.196,0.032,0.29v0.206c0,0.09,0,0.184,0.011,0.273c0.005,0.085,0.021,0.164,0.047,0.227
			c0.092,0.18,0.284,0.264,0.563,0.264c0.285,0,0.558,0,0.827,0h3.913c0.105,0,0.243-0.005,0.401-0.011
			c0.163-0.005,0.315-0.005,0.463,0c0.152,0.006,0.287,0.026,0.416,0.053c0.126,0.026,0.21,0.068,0.252,0.121
			c0.066,0.079,0.098,0.179,0.098,0.301c0,0.121,0,0.252,0,0.385v0.927c0,0.11,0.003,0.21,0.014,0.305
			c0.005,0.09-0.006,0.175-0.032,0.242c-0.053,0.105-0.122,0.18-0.204,0.222c-0.065,0.053-0.166,0.079-0.303,0.079
			c-0.131,0-0.263,0-0.379,0h-1.435h-5.461h-1.452c-0.19,0-0.353-0.011-0.495-0.031c-0.142-0.021-0.248-0.085-0.313-0.19
			c-0.053-0.079-0.082-0.184-0.082-0.315c0-0.127,0-0.248,0-0.369v-1.411v-5.346v-4.557v-1.27c0-0.121,0.005-0.242,0.014-0.362
			c0.007-0.122,0.028-0.217,0.068-0.282c0.055-0.096,0.161-0.162,0.324-0.202c0.026-0.013,0.053-0.016,0.079-0.013
			C43.716,31.954,43.745,31.952,43.771,31.94z"/>
		<path fill="#ffffff" d="M55.708,31.94h7.539h1.751c0.163,0,0.321,0.007,0.463,0.02c0.152,0.013,0.258,0.067,0.324,0.161
			c0.029,0.041,0.045,0.088,0.055,0.142c0.005,0.053,0.021,0.108,0.048,0.161v0.221c0.01,0.095,0.016,0.196,0.007,0.303
			c-0.007,0.108-0.007,0.209-0.007,0.302c0,0.108,0,0.212,0.007,0.314c0.008,0.1,0.002,0.198-0.007,0.292
			c-0.016,0.066-0.021,0.168-0.021,0.303c-0.04,0.16-0.105,0.267-0.201,0.321c-0.081,0.053-0.179,0.081-0.303,0.081
			c-0.124,0-0.25,0-0.381,0H63.59h-3.647c-0.111,0-0.235-0.004-0.374-0.011c-0.142-0.006-0.285-0.006-0.427,0
			c-0.137,0.007-0.27,0.021-0.39,0.041c-0.122,0.021-0.208,0.05-0.264,0.091c-0.095,0.066-0.15,0.165-0.171,0.293
			c-0.021,0.126-0.028,0.271-0.028,0.434v1.147v0.585c0.026,0.108,0.053,0.197,0.079,0.272c0.026,0.074,0.073,0.133,0.142,0.172
			c0.079,0.054,0.174,0.085,0.284,0.091c0.105,0.006,0.221,0.009,0.342,0.009h1.085h3.471c0.093,0,0.211-0.003,0.353-0.009
			c0.137-0.006,0.277-0.006,0.411,0c0.137,0.006,0.261,0.018,0.374,0.03c0.116,0.013,0.197,0.04,0.253,0.081
			c0.068,0.039,0.113,0.12,0.136,0.241c0.029,0.121,0.048,0.252,0.055,0.393c0.009,0.142,0.009,0.287,0,0.434
			c-0.007,0.148-0.012,0.276-0.012,0.383c0,0.095,0,0.189,0,0.283c0,0.095-0.014,0.175-0.043,0.242
			c-0.023,0.106-0.076,0.196-0.158,0.259c-0.069,0.043-0.158,0.068-0.274,0.085c-0.113,0.013-0.242,0.018-0.379,0.018
			c-0.142,0-0.284-0.002-0.426-0.007c-0.137-0.009-0.259-0.011-0.353-0.011h-3.929c-0.163,0-0.316-0.006-0.463-0.012
			c-0.147-0.007-0.29,0-0.414,0.022c-0.129,0.015-0.235,0.058-0.324,0.118c-0.087,0.061-0.15,0.152-0.19,0.271
			c-0.016,0.071-0.021,0.14-0.021,0.213c0,0.077,0,0.146,0,0.214v0.764v1.129c0,0.163,0.007,0.305,0.028,0.438
			c0.021,0.126,0.077,0.227,0.171,0.289c0.042,0.042,0.089,0.063,0.153,0.073c0.058,0.006,0.124,0.021,0.189,0.048h0.2
			c0.069,0.016,0.142,0.016,0.227,0.011c0.08-0.006,0.153-0.011,0.222-0.011h0.845h3.79h1.069c0.108,0,0.211,0,0.313,0
			c0.097,0,0.192,0.021,0.271,0.062c0.105,0.038,0.184,0.111,0.221,0.222c0.027,0.069,0.045,0.147,0.053,0.242
			c0.006,0.096,0.011,0.194,0.011,0.3v0.928c0,0.163-0.011,0.311-0.023,0.458c-0.013,0.137-0.071,0.242-0.179,0.312
			c-0.082,0.062-0.187,0.1-0.313,0.1s-0.264,0-0.413,0h-1.512h-5.97h-1.59c-0.19,0-0.355-0.011-0.495-0.031
			c-0.14-0.021-0.243-0.085-0.313-0.19c-0.053-0.079-0.082-0.184-0.082-0.315c0-0.127,0-0.248,0-0.369v-1.453v-5.485v-4.396v-1.249
			c0-0.121,0-0.242,0-0.362c0-0.122,0.029-0.217,0.082-0.282c0.055-0.096,0.155-0.162,0.305-0.202
			c0.023-0.013,0.05-0.016,0.076-0.013C55.653,31.954,55.682,31.952,55.708,31.94z"/>
		<path fill="#ffffff" d="M74.395,31.598c1.414-0.027,2.576,0.215,3.486,0.725c0.916,0.512,1.643,1.188,2.18,2.035
			c0.148,0.229,0.269,0.461,0.364,0.697c0.095,0.235,0.182,0.493,0.263,0.776c0.027,0.092,0.053,0.2,0.08,0.322
			c0.026,0.12,0.021,0.236-0.021,0.343c-0.027,0.08-0.077,0.131-0.148,0.153c-0.076,0.019-0.163,0.043-0.255,0.068h-0.161
			c-0.079,0.027-0.174,0.039-0.273,0.03c-0.101-0.006-0.195-0.01-0.291-0.01c-0.12,0-0.268,0.004-0.432,0.01
			c-0.168,0.009-0.337,0.009-0.495,0c-0.163-0.006-0.308-0.021-0.445-0.041c-0.134-0.021-0.234-0.051-0.303-0.09
			c-0.108-0.094-0.189-0.223-0.242-0.382c-0.053-0.162-0.119-0.304-0.201-0.426c-0.255-0.442-0.589-0.791-1.005-1.048
			c-0.284-0.175-0.601-0.316-0.948-0.423c-0.232-0.08-0.516-0.121-0.859-0.121c-0.342,0-0.643,0.033-0.895,0.101
			c-0.111,0.028-0.205,0.051-0.295,0.072c-0.09,0.018-0.179,0.048-0.271,0.089c-0.914,0.391-1.561,1.035-1.936,1.937
			c-0.067,0.16-0.128,0.329-0.181,0.504c-0.055,0.175-0.116,0.355-0.182,0.544c-0.016,0.095-0.027,0.183-0.042,0.261
			c-0.011,0.083-0.027,0.168-0.04,0.263c-0.028,0.08-0.037,0.167-0.028,0.254c0.005,0.088-0.005,0.177-0.032,0.271
			c-0.027,0.105-0.037,0.218-0.029,0.332c0.008,0.113,0.011,0.225,0.011,0.332c0,0.054-0.002,0.109-0.011,0.161
			c-0.008,0.055-0.002,0.11,0.011,0.163v0.18c0.027,0.067,0.034,0.136,0.029,0.204c-0.006,0.065,0,0.132,0.031,0.2
			c0,0.081,0.011,0.189,0.041,0.321c0.028,0.149,0.052,0.284,0.081,0.416c0.026,0.126,0.058,0.25,0.1,0.369
			c0.187,0.566,0.429,1.048,0.727,1.444c0.294,0.399,0.684,0.721,1.166,0.979c0.151,0.068,0.303,0.12,0.466,0.168
			c0.164,0.048,0.335,0.101,0.525,0.153c0.066,0.01,0.128,0.021,0.192,0.031c0.058,0.006,0.12,0.011,0.189,0.011h0.161
			c0.068,0.026,0.155,0.036,0.263,0.026c0.105-0.006,0.195-0.016,0.261-0.026c0.081,0,0.142-0.011,0.182-0.021
			c0.163-0.026,0.313-0.053,0.456-0.079c0.143-0.031,0.279-0.079,0.411-0.143c0.31-0.136,0.576-0.31,0.8-0.537
			c0.221-0.221,0.418-0.473,0.59-0.754c0.084-0.137,0.152-0.284,0.2-0.445c0.058-0.16,0.116-0.323,0.188-0.481
			c0.04-0.15,0.081-0.285,0.118-0.405c0.04-0.121,0.126-0.217,0.261-0.282c0.082-0.029,0.187-0.04,0.303-0.04
			c0.122,0,0.237,0,0.342,0h1.232c0.121,0,0.242,0,0.374,0c0.126,0,0.232,0.027,0.312,0.08c0.094,0.068,0.145,0.174,0.153,0.321
			c0.005,0.151-0.011,0.289-0.053,0.426l-0.121,0.543c-0.069,0.205-0.132,0.396-0.19,0.586c-0.06,0.189-0.137,0.369-0.232,0.548
			c-0.068,0.105-0.121,0.21-0.161,0.311c-0.042,0.101-0.094,0.194-0.163,0.289c-0.74,1.159-1.814,1.965-3.226,2.424
			c-0.147,0.052-0.294,0.089-0.442,0.12c-0.15,0.027-0.295,0.053-0.442,0.08c-0.069,0.025-0.135,0.036-0.192,0.03
			c-0.061-0.01-0.124,0.006-0.192,0.027c-0.095,0-0.184,0.005-0.273,0.011c-0.087,0.01-0.179,0.021-0.271,0.03h-0.324
			c-0.121,0-0.242,0-0.363,0c-0.119,0-0.231-0.01-0.339-0.041c-0.04-0.012-0.108-0.017-0.203-0.017
			c-0.095-0.016-0.19-0.025-0.282-0.041c-0.096-0.012-0.198-0.027-0.303-0.043c-0.137-0.037-0.264-0.074-0.396-0.1
			c-0.126-0.027-0.257-0.058-0.39-0.101c-0.121-0.042-0.242-0.084-0.363-0.131c-0.121-0.048-0.237-0.096-0.342-0.148
			c-0.809-0.353-1.491-0.821-2.049-1.4c-0.559-0.59-1.011-1.28-1.359-2.092c-0.081-0.201-0.147-0.401-0.202-0.601
			c-0.056-0.206-0.113-0.411-0.182-0.627c-0.027-0.068-0.043-0.126-0.043-0.174c0-0.045-0.005-0.095-0.018-0.147
			c-0.029-0.124-0.047-0.253-0.058-0.385c-0.013-0.137-0.034-0.264-0.066-0.385c-0.026-0.065-0.034-0.12-0.026-0.171
			c0.005-0.045,0-0.098-0.011-0.15v-0.384c-0.026-0.066-0.042-0.169-0.042-0.303c0-0.133,0.016-0.234,0.042-0.302
			c0.011-0.042,0.016-0.085,0.011-0.132c-0.008-0.046-0.011-0.082-0.011-0.11v-0.182c0.027-0.106,0.042-0.223,0.05-0.343
			c0.008-0.121,0.018-0.24,0.029-0.362c0.026-0.107,0.047-0.213,0.061-0.312c0.013-0.102,0.034-0.206,0.061-0.313
			c0.053-0.187,0.102-0.372,0.142-0.553c0.04-0.182,0.095-0.354,0.161-0.515c0.068-0.176,0.14-0.351,0.213-0.525
			c0.074-0.173,0.157-0.334,0.252-0.482c0.213-0.378,0.437-0.712,0.664-1.01c0.066-0.093,0.142-0.18,0.222-0.261
			c0.079-0.08,0.163-0.16,0.242-0.242c0.337-0.336,0.69-0.622,1.059-0.857c0.368-0.234,0.79-0.447,1.258-0.634
			c0.163-0.068,0.33-0.124,0.508-0.17c0.171-0.05,0.355-0.094,0.54-0.134c0.082-0.026,0.163-0.04,0.248-0.04
			c0.077,0,0.151-0.014,0.222-0.039c0.104-0.014,0.21-0.023,0.311-0.032c0.1-0.005,0.206-0.017,0.311-0.028
			c0.026-0.015,0.06-0.015,0.1,0C74.337,31.609,74.368,31.609,74.395,31.598z"/>
		<path fill="#ffffff" d="M90.666,31.94h2.057c0.173,0,0.347,0.004,0.516,0.007c0.168,0.007,0.305,0.046,0.411,0.111
			c0.042,0.029,0.074,0.072,0.094,0.132c0.016,0.062,0.035,0.125,0.048,0.192v0.102c0.013,0.053,0.021,0.114,0.021,0.181
			s0,0.134,0,0.201v0.787c0,0.094,0.002,0.186,0.011,0.271c0.005,0.088-0.006,0.172-0.032,0.254c-0.068,0.228-0.2,0.347-0.401,0.362
			c-0.2,0.013-0.447,0.02-0.729,0.02h-2.053c-0.271,0-0.503,0.011-0.698,0.03c-0.195,0.021-0.324,0.146-0.39,0.373
			c-0.016,0.066-0.016,0.128,0,0.181c0.01,0.055,0.005,0.115-0.024,0.182c-0.013,0.082-0.013,0.172-0.008,0.272
			c0.005,0.101,0.008,0.191,0.008,0.271v1.794v5.809v1.896c0,0.216-0.008,0.401-0.028,0.554c-0.021,0.152-0.105,0.263-0.253,0.332
			c-0.095,0.025-0.201,0.042-0.321,0.042c-0.121,0-0.237,0-0.343,0h-1.372c-0.149,0-0.284-0.006-0.413-0.021
			c-0.126-0.016-0.227-0.058-0.295-0.143c-0.065-0.104-0.1-0.241-0.1-0.41c0-0.168,0-0.342,0-0.517v-2.017v-5.604V35.87
			c0-0.095,0.005-0.19,0.01-0.292c0.006-0.101,0-0.19-0.026-0.272c-0.016-0.065-0.016-0.127,0-0.179
			c0.011-0.056,0.005-0.108-0.021-0.163c-0.069-0.228-0.206-0.352-0.417-0.373c-0.208-0.02-0.453-0.03-0.734-0.03h-1.875
			c-0.148,0-0.313,0.004-0.493,0.011c-0.184,0.007-0.326-0.003-0.434-0.03c-0.108-0.04-0.188-0.103-0.245-0.184
			c-0.037-0.065-0.06-0.153-0.068-0.261c-0.005-0.107-0.011-0.216-0.011-0.322v-0.988c0-0.174,0.011-0.328,0.032-0.464
			c0.021-0.135,0.085-0.234,0.19-0.303c0.042-0.026,0.116-0.053,0.221-0.079h0.103H90.666z"/>
		<path fill="#ffffff" d="M96.01,31.96h1.732c0.147,0,0.289,0.003,0.426,0.01c0.131,0.007,0.234,0.058,0.3,0.151
			c0.069,0.095,0.105,0.216,0.111,0.363c0.007,0.146,0.01,0.308,0.01,0.483v1.755v6.995v3.309c0,0.174,0.003,0.369,0.011,0.585
			c0.005,0.216-0.021,0.374-0.089,0.484c-0.055,0.089-0.174,0.163-0.363,0.222c-0.096,0.025-0.195,0.03-0.303,0.021
			c-0.108-0.016-0.213-0.021-0.324-0.021h-1.189c-0.146,0-0.285-0.006-0.412-0.021c-0.131-0.017-0.234-0.053-0.311-0.121
			c-0.068-0.068-0.11-0.169-0.124-0.3c-0.013-0.138-0.021-0.279-0.021-0.427v-1.754v-7.36v-2.941c0-0.19-0.002-0.411-0.008-0.668
			c-0.008-0.255,0.021-0.436,0.089-0.544c0.053-0.08,0.14-0.146,0.263-0.199c0.042,0,0.08-0.005,0.111-0.012
			C95.954,31.963,95.983,31.96,96.01,31.96z"/>
		<path fill="#ffffff" d="M114.922,38.633c0.026,0.081,0.042,0.219,0.05,0.414c0.009,0.194-0.002,0.332-0.028,0.412v0.263
			c-0.026,0.132-0.043,0.276-0.043,0.424c0,0.15-0.011,0.295-0.039,0.442c-0.026,0.098-0.045,0.189-0.061,0.282
			c-0.013,0.097-0.031,0.189-0.063,0.284c-0.063,0.242-0.126,0.477-0.189,0.706c-0.058,0.226-0.137,0.447-0.231,0.663
			c-0.4,0.943-0.948,1.724-1.63,2.35c-0.688,0.628-1.536,1.107-2.544,1.444c-0.145,0.052-0.293,0.089-0.445,0.12
			c-0.147,0.027-0.295,0.053-0.442,0.08c-0.066,0.025-0.137,0.041-0.211,0.041c-0.073,0-0.142,0.005-0.211,0.017l-0.663,0.063
			c-0.055,0.01-0.15,0.015-0.284,0.01c-0.135-0.005-0.222-0.021-0.264-0.032c-0.066-0.01-0.131-0.015-0.189-0.01
			c-0.061,0.01-0.123,0.005-0.192-0.011h-0.224c-0.105-0.026-0.206-0.042-0.301-0.048c-0.094-0.01-0.194-0.025-0.3-0.052
			c-0.11-0.026-0.216-0.048-0.326-0.068c-0.105-0.021-0.214-0.043-0.321-0.074c-0.147-0.052-0.3-0.104-0.454-0.157
			c-0.152-0.053-0.305-0.116-0.452-0.186c-0.806-0.347-1.488-0.816-2.046-1.4s-1.014-1.279-1.361-2.087
			c-0.082-0.188-0.15-0.385-0.201-0.596c-0.058-0.207-0.115-0.415-0.184-0.631c-0.026-0.069-0.037-0.127-0.037-0.175
			c0-0.044-0.011-0.097-0.021-0.152c-0.032-0.095-0.047-0.189-0.063-0.29c-0.013-0.1-0.032-0.205-0.058-0.312
			c-0.016-0.066-0.019-0.132-0.011-0.192c0.006-0.058-0.005-0.116-0.031-0.169c-0.013-0.081-0.013-0.166,0-0.254
			c0.013-0.086,0.013-0.171,0-0.251c-0.027-0.067-0.042-0.172-0.042-0.312c0-0.142,0.016-0.246,0.042-0.313
			c0.013-0.067,0.013-0.132,0-0.191c-0.013-0.06-0.013-0.123,0-0.19V38.37c0.026-0.092,0.037-0.186,0.031-0.271
			c-0.008-0.089,0.002-0.17,0.029-0.252c0.026-0.066,0.04-0.137,0.04-0.212c0-0.074,0.016-0.142,0.042-0.212
			c0.066-0.228,0.121-0.453,0.158-0.675c0.043-0.222,0.105-0.438,0.185-0.656c0.105-0.227,0.205-0.456,0.3-0.684
			c0.095-0.229,0.21-0.444,0.342-0.646c0.406-0.645,0.869-1.184,1.393-1.612c0.524-0.43,1.161-0.799,1.918-1.108
			c0.17-0.068,0.354-0.122,0.553-0.161c0.192-0.043,0.387-0.089,0.576-0.143c0.063-0.026,0.129-0.04,0.189-0.04
			c0.058,0,0.124-0.007,0.19-0.021l0.605-0.061c0.025-0.013,0.062-0.013,0.11,0c0.047,0.015,0.085,0.015,0.11,0
			c0.954-0.024,1.78,0.071,2.483,0.292c0.698,0.223,1.324,0.529,1.872,0.92c0.175,0.119,0.358,0.257,0.545,0.412
			c0.188,0.154,0.343,0.312,0.467,0.473c0.065,0.069,0.131,0.139,0.2,0.212c0.065,0.076,0.126,0.146,0.179,0.211
			c0.147,0.218,0.298,0.436,0.447,0.656c0.143,0.223,0.274,0.461,0.379,0.717c0.082,0.189,0.153,0.368,0.211,0.544
			c0.063,0.175,0.127,0.363,0.195,0.564c0.04,0.134,0.073,0.272,0.101,0.413c0.025,0.142,0.058,0.286,0.1,0.434
			c0.026,0.095,0.042,0.186,0.042,0.272c0,0.088,0.01,0.171,0.039,0.251c0.026,0.08,0.037,0.167,0.029,0.254
			c-0.006,0.088-0.003,0.164,0.011,0.231V38.633z M111.799,39.479c0.023-0.066,0.037-0.163,0.037-0.291s-0.014-0.227-0.037-0.294
			v-0.342c-0.016-0.053-0.016-0.104-0.011-0.153c0.005-0.046-0.005-0.096-0.032-0.149c-0.025-0.107-0.044-0.211-0.047-0.313
			c-0.011-0.101-0.026-0.197-0.053-0.29c0-0.07-0.013-0.144-0.042-0.224c-0.037-0.147-0.079-0.295-0.121-0.442
			c-0.036-0.149-0.095-0.296-0.158-0.446c-0.3-0.684-0.727-1.238-1.285-1.662c-0.553-0.422-1.332-0.633-2.325-0.633
			c-0.029,0.012-0.055,0.015-0.092,0.008c-0.031-0.004-0.063-0.001-0.089,0.012c-0.053,0.012-0.109,0.017-0.164,0.01
			c-0.052-0.007-0.113,0.002-0.18,0.028c-0.146,0.029-0.294,0.06-0.434,0.094c-0.14,0.031-0.271,0.077-0.393,0.129
			c-0.563,0.242-1.011,0.578-1.343,1.008c-0.327,0.432-0.595,0.95-0.795,1.555c-0.037,0.146-0.068,0.292-0.089,0.433
			c-0.021,0.142-0.053,0.286-0.09,0.433c-0.013,0.054-0.021,0.105-0.021,0.151c0,0.049-0.005,0.099-0.021,0.151
			c-0.026,0.068-0.037,0.141-0.021,0.223c0.016,0.08,0.016,0.154,0,0.221c-0.026,0.067-0.042,0.193-0.047,0.373
			c-0.006,0.182,0,0.307,0.026,0.373v0.222c0.016,0.055,0.021,0.112,0.021,0.171c0,0.063,0.008,0.118,0.021,0.174
			c0,0.053,0.002,0.103,0.011,0.147c0.005,0.047,0.01,0.1,0.01,0.152c0.04,0.147,0.068,0.296,0.09,0.442
			c0.021,0.147,0.058,0.29,0.11,0.427c0.147,0.427,0.332,0.827,0.544,1.195c0.213,0.37,0.485,0.671,0.81,0.902
			c0.064,0.063,0.137,0.116,0.21,0.158c0.074,0.042,0.15,0.084,0.232,0.121c0.146,0.095,0.305,0.169,0.473,0.222
			c0.164,0.053,0.349,0.11,0.532,0.163c0.069,0.025,0.133,0.037,0.19,0.031c0.062-0.011,0.126-0.006,0.194,0.011
			c0.079,0.026,0.158,0.036,0.242,0.036c0.079,0,0.169,0,0.261,0h0.163c0.066-0.01,0.13-0.016,0.182-0.01
			c0.053,0.01,0.111,0,0.179-0.026c0.138-0.032,0.27-0.053,0.406-0.074c0.135-0.021,0.261-0.058,0.385-0.11
			c0.573-0.227,1.027-0.521,1.355-0.885c0.33-0.364,0.614-0.833,0.84-1.413c0.064-0.147,0.116-0.308,0.151-0.484
			c0.034-0.174,0.076-0.348,0.129-0.521l0.063-0.485c0.01-0.056,0.021-0.11,0.021-0.174c0-0.059,0-0.123,0-0.191V39.479z"/>
		<path fill="#ffffff" d="M117.684,31.94h1.633c0.147,0,0.293-0.003,0.436-0.011c0.142-0.006,0.263,0.018,0.371,0.07
			c0.134,0.055,0.239,0.135,0.312,0.242c0.074,0.108,0.143,0.216,0.211,0.322l0.728,1.148c0.471,0.767,0.945,1.53,1.422,2.289
			c0.474,0.76,0.95,1.522,1.422,2.287c0.226,0.365,0.452,0.73,0.674,1.102c0.222,0.367,0.455,0.729,0.695,1.078
			c0.053,0.08,0.105,0.158,0.152,0.243c0.048,0.078,0.11,0.153,0.19,0.221c0.025,0.026,0.062,0.053,0.1,0.079
			c0.042,0.026,0.084,0.026,0.121,0c0.095-0.026,0.142-0.087,0.142-0.182c0-0.093,0.017-0.197,0.043-0.303
			c0.013-0.095,0.015-0.197,0.01-0.311c-0.007-0.116-0.01-0.227-0.01-0.332v-1.273v-4.675v-0.768c0-0.067-0.006-0.135-0.011-0.201
			c-0.005-0.068-0.005-0.127,0.011-0.182v-0.222c0-0.187,0.039-0.337,0.12-0.443c0.066-0.094,0.156-0.148,0.27-0.161
			c0.115-0.013,0.248-0.02,0.396-0.02h1.231c0.105,0,0.214,0,0.321,0c0.105,0,0.2,0.012,0.282,0.041
			c0.177,0.066,0.266,0.184,0.282,0.353c0.016,0.168,0.021,0.366,0.021,0.594v2.217v8.449v1.696c0,0.147,0.005,0.294,0.01,0.442
			c0.006,0.147-0.015,0.263-0.073,0.342c-0.051,0.079-0.115,0.132-0.189,0.152c-0.073,0.017-0.164,0.043-0.271,0.069h-0.706h-1.109
			c-0.12,0-0.239,0-0.353,0c-0.116,0-0.211-0.021-0.295-0.063c-0.145-0.063-0.258-0.158-0.342-0.269
			c-0.08-0.116-0.161-0.237-0.237-0.374c-0.124-0.189-0.242-0.379-0.358-0.574c-0.11-0.195-0.229-0.39-0.353-0.574l-3.023-4.84
			c-0.189-0.31-0.374-0.607-0.553-0.897c-0.183-0.29-0.369-0.59-0.553-0.896c-0.074-0.094-0.148-0.213-0.235-0.354
			c-0.086-0.142-0.202-0.211-0.352-0.211c-0.109,0.092-0.167,0.199-0.172,0.322c-0.005,0.119-0.011,0.274-0.011,0.463v1.411v4.818
			v0.789c0,0.069,0.006,0.133,0.011,0.2c0.005,0.068-0.005,0.133-0.029,0.201v0.221c0,0.216-0.034,0.369-0.102,0.463
			c-0.069,0.085-0.158,0.127-0.274,0.143c-0.111,0.016-0.243,0.021-0.391,0.021h-1.227c-0.11,0-0.221,0-0.326,0
			s-0.203-0.017-0.282-0.042c-0.177-0.069-0.271-0.19-0.292-0.363c-0.021-0.174-0.031-0.375-0.031-0.601v-2.323v-8.084v-1.876
			c0-0.147,0-0.301,0-0.461c0-0.163,0.029-0.291,0.078-0.384c0.059-0.096,0.15-0.162,0.287-0.202c0.024,0,0.055-0.006,0.09-0.013
			C117.626,31.944,117.655,31.94,117.684,31.94z"/>
	</g>
	<path fill="#ffffff" d="M170.378,0.879c-20.775,0-37.623,16.847-37.623,37.624c0,20.78,16.848,37.618,37.623,37.618
		c20.778,0,37.622-16.838,37.622-37.618C208,17.726,191.156,0.879,170.378,0.879z M147.768,42.163v0.358
		c-0.029,0.156-0.045,0.293-0.071,0.425c-0.021,0.137-0.047,0.269-0.09,0.405c-0.078,0.242-0.165,0.464-0.263,0.669
		c-0.09,0.2-0.208,0.396-0.34,0.579c-0.056,0.074-0.11,0.127-0.163,0.174c-0.056,0.047-0.104,0.105-0.14,0.169
		c-0.069,0.084-0.14,0.157-0.227,0.231c-0.079,0.079-0.163,0.147-0.258,0.211c-0.069,0.058-0.14,0.11-0.214,0.169
		c-0.071,0.053-0.152,0.104-0.229,0.157c-0.232,0.153-0.469,0.27-0.717,0.363c-0.25,0.09-0.506,0.195-0.774,0.279
		c-0.192,0.068-0.387,0.111-0.587,0.137c-0.203,0.016-0.405,0.048-0.605,0.085c-0.093,0.031-0.182,0.036-0.269,0.031
		c-0.093-0.005-0.177,0.005-0.256,0.037h-0.165c-0.019,0-0.059-0.005-0.109-0.016c-0.047-0.006-0.083-0.006-0.11,0.016
		c-0.064,0.005-0.179,0.016-0.342,0.016c-0.158,0-0.273-0.011-0.342-0.016h-0.201c-0.095-0.032-0.188-0.042-0.292-0.037
		c-0.103,0.005-0.192,0-0.271-0.031c-0.069,0-0.132,0-0.186-0.006c-0.052-0.011-0.11-0.016-0.179-0.031
		c-0.163-0.042-0.331-0.073-0.505-0.101c-0.175-0.025-0.338-0.073-0.482-0.12c-0.661-0.222-1.24-0.49-1.74-0.816
		c-0.495-0.327-0.911-0.764-1.243-1.296c-0.216-0.332-0.384-0.711-0.506-1.158c-0.026-0.074-0.045-0.158-0.053-0.238
		c-0.005-0.083-0.021-0.168-0.047-0.264c-0.026-0.104-0.051-0.237-0.063-0.396c-0.013-0.153,0.013-0.271,0.081-0.351
		c0.071-0.11,0.167-0.174,0.293-0.192c0.127-0.021,0.273-0.03,0.432-0.03h1.27c0.11,0,0.227,0,0.343,0c0.12,0,0.23,0.021,0.321,0.06
		c0.152,0.071,0.236,0.185,0.263,0.335c0.031,0.152,0.079,0.311,0.142,0.474c0.053,0.165,0.128,0.307,0.201,0.444
		c0.084,0.131,0.168,0.263,0.263,0.384c0.068,0.079,0.143,0.158,0.222,0.222c0.078,0.068,0.168,0.126,0.248,0.179
		c0.289,0.19,0.655,0.348,1.087,0.464c0.092,0.031,0.182,0.041,0.271,0.041c0.084,0,0.185,0.017,0.295,0.043h0.1
		c0.105,0.026,0.253,0.037,0.442,0.037c0.188,0,0.332-0.011,0.442-0.037c0.042-0.016,0.105-0.016,0.2-0.016
		c0.071-0.021,0.14-0.032,0.216-0.037c0.073-0.006,0.143-0.021,0.208-0.048c0.459-0.126,0.819-0.284,1.088-0.489
		c0.271-0.194,0.458-0.532,0.568-1.006c0.027-0.097,0.032-0.202,0.011-0.323c-0.026-0.12-0.047-0.21-0.068-0.278
		c-0.142-0.364-0.369-0.648-0.69-0.849c-0.039-0.025-0.115-0.068-0.221-0.121c-0.205-0.121-0.427-0.221-0.677-0.298
		c-0.25-0.07-0.492-0.147-0.737-0.224c-0.09-0.031-0.182-0.053-0.271-0.073c-0.089-0.021-0.184-0.048-0.292-0.071
		c-0.213-0.065-0.429-0.124-0.655-0.171c-0.222-0.048-0.433-0.104-0.633-0.171c-0.068-0.026-0.121-0.04-0.163-0.04
		s-0.084-0.013-0.142-0.037c-0.101-0.034-0.2-0.053-0.29-0.087c-0.089-0.023-0.189-0.051-0.295-0.08
		c-0.311-0.109-0.6-0.216-0.882-0.33c-0.287-0.116-0.548-0.246-0.788-0.393c-0.311-0.202-0.595-0.435-0.848-0.709
		c-0.258-0.269-0.458-0.578-0.603-0.927c-0.062-0.119-0.099-0.244-0.124-0.371c-0.027-0.136-0.062-0.267-0.103-0.414
		c-0.023-0.119-0.047-0.298-0.061-0.529c-0.011-0.227-0.009-0.411,0.023-0.559c0.014-0.056,0.019-0.133,0.019-0.242
		c0.036-0.149,0.073-0.289,0.103-0.425c0.023-0.13,0.066-0.27,0.118-0.402c0.206-0.47,0.458-0.87,0.774-1.203
		c0.318-0.323,0.685-0.627,1.101-0.895c0.269-0.163,0.556-0.286,0.869-0.379c0.306-0.094,0.637-0.186,0.985-0.265
		c0.137-0.031,0.263-0.047,0.395-0.054c0.126-0.004,0.256-0.023,0.39-0.049c0.042-0.013,0.105-0.013,0.195,0
		c0.084,0.011,0.142,0.005,0.171-0.019c2.609-0.041,4.4,0.73,5.385,2.318c0.135,0.217,0.237,0.436,0.312,0.662
		c0.073,0.231,0.145,0.478,0.211,0.748c0.023,0.108,0.036,0.232,0.028,0.376c-0.005,0.136-0.037,0.243-0.087,0.308
		c-0.068,0.078-0.163,0.133-0.285,0.155c-0.12,0.019-0.257,0.03-0.399,0.03h-1.27c-0.127,0-0.247,0-0.366,0
		c-0.121,0-0.224-0.014-0.303-0.041c-0.163-0.068-0.264-0.179-0.3-0.326c-0.042-0.147-0.095-0.293-0.163-0.44
		c-0.053-0.137-0.127-0.272-0.221-0.421c-0.096-0.149-0.198-0.265-0.307-0.35c-0.187-0.133-0.368-0.248-0.542-0.337
		c-0.163-0.069-0.358-0.127-0.596-0.177c-0.236-0.044-0.474-0.075-0.724-0.089c-0.25-0.01-0.498-0.003-0.74,0.021
		c-0.236,0.03-0.452,0.081-0.643,0.161c-0.306,0.134-0.553,0.289-0.716,0.476c-0.169,0.181-0.284,0.451-0.354,0.813
		c-0.029,0.095-0.036,0.202-0.021,0.315c0.019,0.113,0.037,0.205,0.058,0.27c0.11,0.28,0.264,0.482,0.456,0.59
		c0.197,0.123,0.427,0.233,0.697,0.339c0.147,0.065,0.301,0.115,0.453,0.151c0.158,0.032,0.311,0.075,0.474,0.132
		c0.366,0.119,0.737,0.223,1.12,0.31c0.381,0.091,0.766,0.186,1.14,0.295c0.063,0.03,0.132,0.037,0.2,0.037s0.137,0.019,0.203,0.042
		c0.266,0.094,0.545,0.184,0.835,0.268c0.292,0.076,0.552,0.188,0.776,0.338c0.366,0.231,0.677,0.454,0.935,0.684
		c0.269,0.231,0.511,0.526,0.737,0.892c0.068,0.11,0.126,0.223,0.174,0.36c0.048,0.131,0.1,0.271,0.153,0.405
		c0.01,0.037,0.021,0.079,0.021,0.11c0,0.037,0.003,0.066,0.017,0.09c0.052,0.211,0.081,0.481,0.081,0.806
		C147.797,42.023,147.797,42.097,147.768,42.163z M160.308,34.177c-0.066,0.231-0.197,0.349-0.403,0.364
		c-0.202,0.014-0.445,0.016-0.727,0.016h-2.054c-0.269,0-0.503,0.015-0.692,0.034c-0.198,0.022-0.33,0.147-0.397,0.372
		c-0.017,0.069-0.017,0.129,0,0.182c0.016,0.055,0.01,0.114-0.021,0.184c-0.011,0.076-0.019,0.17-0.008,0.271
		c0.005,0.101,0.008,0.19,0.008,0.27v1.795v5.809v1.896c0,0.216-0.008,0.401-0.026,0.56c-0.021,0.152-0.108,0.263-0.255,0.326
		c-0.09,0.025-0.204,0.042-0.321,0.042c-0.119,0-0.235,0-0.346,0h-1.369c-0.147,0-0.285-0.006-0.411-0.021
		c-0.131-0.005-0.227-0.058-0.294-0.137c-0.069-0.11-0.101-0.253-0.101-0.416c0-0.168,0-0.342,0-0.517v-2.017V37.59v-1.721
		c0-0.089,0.005-0.189,0.01-0.286c0.006-0.105-0.005-0.195-0.031-0.273c-0.016-0.069-0.016-0.131,0-0.183
		c0.011-0.058,0.005-0.108-0.018-0.164c-0.066-0.225-0.209-0.35-0.415-0.372c-0.21-0.02-0.452-0.034-0.736-0.034h-1.875
		c-0.147,0-0.316,0.01-0.495,0.015s-0.326,0-0.432-0.03c-0.108-0.04-0.189-0.098-0.242-0.179c-0.042-0.069-0.063-0.157-0.069-0.262
		c-0.01-0.11-0.01-0.221-0.01-0.327v-0.989c0-0.17,0.01-0.325,0.028-0.462c0.019-0.133,0.082-0.235,0.192-0.298
		c0.042-0.029,0.113-0.057,0.221-0.084h0.101h8.063h2.06c0.174,0,0.342,0,0.511,0.007c0.168,0.007,0.306,0.048,0.416,0.114
		c0.037,0.025,0.068,0.071,0.09,0.131c0.021,0.06,0.036,0.126,0.05,0.192v0.101c0.014,0.05,0.019,0.115,0.019,0.177
		c0,0.071,0,0.143,0,0.209v0.78c0,0.097,0.005,0.184,0.014,0.275C160.342,34.013,160.336,34.101,160.308,34.177z M175.512,39.459
		v0.263c-0.028,0.137-0.039,0.274-0.039,0.429c0,0.148-0.016,0.295-0.048,0.44c-0.021,0.089-0.041,0.185-0.058,0.281
		c-0.016,0.095-0.031,0.19-0.058,0.282c-0.068,0.239-0.132,0.479-0.192,0.706c-0.061,0.231-0.14,0.447-0.229,0.661
		c-0.405,0.945-0.952,1.731-1.638,2.352c-0.682,0.628-1.529,1.107-2.541,1.444c-0.147,0.047-0.292,0.095-0.439,0.12
		c-0.147,0.027-0.298,0.059-0.442,0.08c-0.068,0.03-0.143,0.041-0.211,0.041c-0.078,0-0.147,0.005-0.216,0.017l-0.664,0.068
		c-0.052,0.005-0.152,0.016-0.284,0.005c-0.132-0.005-0.216-0.016-0.263-0.032c-0.063-0.01-0.129-0.015-0.188-0.01
		c-0.061,0.005-0.124,0.005-0.192-0.011h-0.221c-0.105-0.026-0.211-0.042-0.301-0.048c-0.1-0.01-0.199-0.021-0.305-0.052
		c-0.105-0.026-0.216-0.048-0.326-0.068c-0.104-0.021-0.211-0.043-0.316-0.074c-0.153-0.047-0.306-0.104-0.459-0.157
		c-0.152-0.053-0.305-0.111-0.452-0.186c-0.807-0.347-1.491-0.816-2.049-1.396c-0.559-0.589-1.009-1.279-1.359-2.094
		c-0.078-0.186-0.145-0.388-0.205-0.588c-0.053-0.211-0.111-0.421-0.176-0.637c-0.029-0.069-0.04-0.127-0.04-0.175
		c0-0.047-0.011-0.094-0.021-0.146c-0.028-0.096-0.044-0.195-0.058-0.298c-0.016-0.098-0.037-0.205-0.062-0.309
		c-0.011-0.068-0.019-0.132-0.009-0.189c0.003-0.066-0.002-0.121-0.034-0.174c-0.011-0.081-0.011-0.168,0-0.251
		c0.016-0.094,0.016-0.176,0-0.253c-0.026-0.068-0.039-0.171-0.039-0.312c0-0.141,0.013-0.246,0.039-0.312
		c0.016-0.069,0.016-0.134,0-0.19c-0.011-0.062-0.011-0.126,0-0.194V38.37c0.032-0.092,0.037-0.187,0.034-0.271
		c-0.01-0.085,0-0.17,0.029-0.249c0.026-0.068,0.042-0.14,0.042-0.216c0-0.073,0.014-0.139,0.037-0.209
		c0.068-0.232,0.121-0.452,0.163-0.677c0.036-0.22,0.095-0.442,0.182-0.656c0.104-0.227,0.203-0.454,0.297-0.688
		c0.095-0.226,0.211-0.441,0.346-0.643c0.408-0.647,0.866-1.185,1.393-1.61c0.521-0.429,1.159-0.801,1.918-1.11
		c0.171-0.07,0.352-0.124,0.553-0.163c0.195-0.039,0.384-0.085,0.574-0.141c0.063-0.029,0.131-0.035,0.189-0.035
		c0.058,0,0.126-0.014,0.189-0.025l0.605-0.06c0.026-0.014,0.066-0.014,0.111,0c0.047,0.014,0.083,0.014,0.11,0
		c0.959-0.025,1.782,0.071,2.48,0.293c0.7,0.223,1.327,0.527,1.874,0.918c0.174,0.122,0.359,0.259,0.548,0.415
		c0.19,0.153,0.343,0.312,0.466,0.47c0.066,0.071,0.133,0.137,0.198,0.214c0.065,0.071,0.123,0.143,0.18,0.211
		c0.152,0.216,0.3,0.434,0.447,0.653c0.147,0.221,0.279,0.462,0.384,0.718c0.08,0.19,0.148,0.368,0.211,0.542
		c0.058,0.177,0.126,0.364,0.19,0.567c0.041,0.133,0.073,0.27,0.104,0.412c0.021,0.145,0.056,0.284,0.095,0.432
		c0.027,0.099,0.043,0.186,0.043,0.275c0,0.087,0.01,0.17,0.042,0.25c0.025,0.082,0.036,0.167,0.025,0.254
		c0,0.085,0,0.165,0.011,0.232v0.16c0.029,0.078,0.048,0.219,0.053,0.415C175.547,39.244,175.536,39.379,175.512,39.459z
		 M190.33,41.617l-0.124,0.546c-0.065,0.202-0.123,0.398-0.187,0.583c-0.061,0.189-0.142,0.369-0.234,0.548
		c-0.065,0.105-0.121,0.216-0.161,0.311c-0.042,0.101-0.095,0.2-0.157,0.289c-0.742,1.159-1.817,1.971-3.229,2.424
		c-0.15,0.047-0.298,0.095-0.445,0.12c-0.147,0.027-0.292,0.059-0.442,0.08c-0.066,0.03-0.129,0.036-0.192,0.03
		c-0.058-0.01-0.126,0.006-0.195,0.027c-0.089,0-0.184,0.011-0.269,0.011c-0.086,0.01-0.179,0.021-0.273,0.03H184.1
		c-0.121,0-0.242,0-0.362,0c-0.122,0-0.238-0.01-0.341-0.041c-0.042-0.012-0.11-0.017-0.2-0.017
		c-0.097-0.011-0.197-0.025-0.282-0.041c-0.099-0.017-0.199-0.021-0.305-0.043c-0.138-0.037-0.269-0.068-0.396-0.1
		c-0.126-0.027-0.258-0.058-0.39-0.101c-0.123-0.037-0.245-0.078-0.368-0.131c-0.122-0.048-0.232-0.096-0.338-0.148
		c-0.811-0.353-1.489-0.821-2.048-1.406c-0.559-0.579-1.012-1.274-1.361-2.086c-0.082-0.201-0.145-0.401-0.203-0.601
		c-0.053-0.206-0.11-0.413-0.18-0.633c-0.025-0.061-0.041-0.12-0.041-0.163c0-0.05-0.006-0.095-0.021-0.152
		c-0.026-0.121-0.048-0.25-0.061-0.382c-0.013-0.14-0.031-0.267-0.058-0.384c-0.029-0.069-0.037-0.13-0.029-0.172
		c0.006-0.048,0-0.101-0.017-0.153v-0.38c-0.021-0.069-0.036-0.174-0.036-0.306c0-0.129,0.016-0.234,0.036-0.301
		c0.017-0.044,0.022-0.085,0.017-0.134c-0.008-0.045-0.017-0.082-0.017-0.109v-0.183c0.029-0.104,0.048-0.223,0.054-0.343
		c0.008-0.121,0.019-0.24,0.031-0.358c0.026-0.115,0.048-0.217,0.058-0.316c0.016-0.099,0.037-0.204,0.063-0.313
		c0.058-0.185,0.101-0.372,0.137-0.555c0.042-0.175,0.098-0.352,0.164-0.515c0.068-0.174,0.142-0.351,0.213-0.523
		c0.071-0.172,0.16-0.335,0.253-0.481c0.216-0.38,0.439-0.713,0.666-1.009c0.065-0.093,0.143-0.182,0.222-0.264
		c0.079-0.085,0.163-0.161,0.236-0.243c0.337-0.334,0.695-0.617,1.064-0.854c0.368-0.236,0.784-0.447,1.259-0.636
		c0.16-0.07,0.326-0.124,0.5-0.169c0.179-0.051,0.358-0.095,0.548-0.135c0.078-0.029,0.163-0.035,0.242-0.035
		s0.152-0.02,0.222-0.045c0.104-0.013,0.213-0.02,0.31-0.029c0.105-0.007,0.206-0.014,0.316-0.03c0.023-0.015,0.063-0.015,0.101,0
		c0.042,0.017,0.073,0.017,0.1,0c1.412-0.027,2.575,0.216,3.491,0.725c0.912,0.511,1.638,1.189,2.176,2.04
		c0.147,0.229,0.269,0.456,0.36,0.693c0.098,0.234,0.182,0.496,0.267,0.775c0.025,0.095,0.053,0.201,0.078,0.32
		c0.024,0.122,0.017,0.239-0.023,0.344c-0.023,0.081-0.073,0.134-0.149,0.154c-0.074,0.019-0.163,0.041-0.253,0.066h-0.158
		c-0.084,0.026-0.174,0.038-0.273,0.032c-0.101-0.006-0.195-0.012-0.292-0.012c-0.122,0-0.267,0.006-0.436,0.012
		c-0.168,0.006-0.326,0.006-0.492,0c-0.16-0.006-0.309-0.019-0.444-0.046c-0.138-0.017-0.235-0.044-0.301-0.084
		c-0.107-0.092-0.189-0.226-0.242-0.382c-0.053-0.163-0.119-0.305-0.202-0.427c-0.251-0.442-0.59-0.791-1.007-1.048
		c-0.282-0.171-0.598-0.312-0.947-0.423c-0.229-0.079-0.517-0.122-0.862-0.122c-0.336,0-0.639,0.035-0.895,0.104
		c-0.11,0.027-0.205,0.051-0.29,0.066c-0.084,0.022-0.182,0.056-0.271,0.094c-0.917,0.388-1.564,1.033-1.938,1.934
		c-0.066,0.161-0.13,0.327-0.179,0.505c-0.056,0.175-0.116,0.359-0.182,0.542c-0.016,0.099-0.032,0.185-0.043,0.267
		c-0.011,0.076-0.025,0.169-0.042,0.259c-0.026,0.082-0.031,0.167-0.026,0.254c0.006,0.085-0.005,0.179-0.034,0.271
		c-0.023,0.111-0.033,0.22-0.031,0.334c0.013,0.117,0.013,0.221,0.013,0.331c0,0.056,0,0.104-0.013,0.16
		c-0.002,0.053-0.002,0.11,0.013,0.164v0.176c0.026,0.073,0.037,0.137,0.032,0.204c-0.011,0.071,0,0.138,0.028,0.201
		c0,0.086,0.008,0.191,0.042,0.326c0.024,0.146,0.051,0.286,0.076,0.41c0.027,0.135,0.063,0.253,0.104,0.372
		c0.189,0.566,0.426,1.048,0.727,1.449c0.295,0.39,0.682,0.721,1.17,0.969c0.149,0.074,0.303,0.132,0.461,0.174
		c0.163,0.053,0.337,0.095,0.528,0.153c0.061,0.016,0.13,0.025,0.192,0.031c0.058,0.006,0.121,0.011,0.189,0.011h0.158
		c0.068,0.021,0.158,0.036,0.264,0.031c0.108-0.011,0.194-0.021,0.263-0.031c0.079,0,0.143-0.011,0.185-0.021
		c0.161-0.026,0.311-0.053,0.453-0.084c0.14-0.021,0.274-0.068,0.41-0.143c0.312-0.131,0.577-0.305,0.796-0.526
		c0.221-0.231,0.418-0.479,0.598-0.76c0.076-0.137,0.146-0.281,0.198-0.445c0.053-0.16,0.115-0.323,0.181-0.481
		c0.045-0.152,0.082-0.282,0.124-0.405c0.042-0.121,0.127-0.217,0.261-0.279c0.084-0.032,0.182-0.043,0.306-0.043
		c0.118,0,0.234,0,0.345,0h1.228c0.118,0,0.242,0,0.368,0c0.127,0,0.237,0.029,0.315,0.082c0.096,0.066,0.143,0.172,0.148,0.319
		C190.388,41.341,190.369,41.485,190.33,41.617z M205.087,46.296c-0.173,0-0.337,0-0.484,0h-1.593c-0.147,0-0.295,0.006-0.442,0.011
		s-0.281,0-0.403-0.032c-0.146-0.053-0.263-0.131-0.353-0.231s-0.168-0.211-0.253-0.332c-0.078-0.104-0.158-0.216-0.231-0.331
		c-0.073-0.117-0.147-0.232-0.231-0.354c-0.363-0.563-0.737-1.116-1.106-1.653c-0.379-0.537-0.759-1.092-1.133-1.661
		c-0.146-0.223-0.294-0.442-0.434-0.658s-0.282-0.427-0.43-0.645c-0.056-0.071-0.121-0.146-0.203-0.229
		c-0.081-0.092-0.188-0.121-0.323-0.097c-0.138,0.044-0.269,0.134-0.406,0.275c-0.134,0.14-0.241,0.253-0.339,0.354
		c-0.071,0.063-0.129,0.137-0.205,0.211c-0.063,0.073-0.135,0.146-0.198,0.21c-0.098,0.095-0.18,0.188-0.263,0.271
		c-0.08,0.087-0.147,0.192-0.203,0.308c-0.042,0.087-0.061,0.174-0.065,0.267c-0.009,0.098-0.017,0.197-0.017,0.303v0.264
		c-0.011,0.069-0.016,0.144-0.008,0.233c0.008,0.083,0.008,0.157,0.008,0.231v0.947v1.428c0,0.152,0,0.295-0.008,0.427
		c-0.008,0.137-0.045,0.242-0.113,0.326c-0.068,0.079-0.163,0.132-0.3,0.137c-0.138,0.016-0.276,0.021-0.422,0.021h-1.374
		c-0.147,0-0.29-0.006-0.419-0.006c-0.135-0.011-0.25-0.047-0.345-0.115c-0.098-0.068-0.143-0.189-0.143-0.369
		c0-0.185,0-0.363,0-0.543v-2.338v-8.041v-1.873c0-0.147-0.005-0.303-0.01-0.465c-0.006-0.161,0.015-0.289,0.07-0.382
		c0.082-0.094,0.187-0.159,0.321-0.203c0.029-0.014,0.056-0.021,0.081-0.014c0.032,0.007,0.053,0.005,0.082-0.007h1.552
		c0.257,0,0.468,0.007,0.647,0.029c0.174,0.021,0.298,0.139,0.363,0.353c0.011,0.065,0.016,0.139,0.016,0.213
		c0,0.071,0,0.147,0,0.232v0.808v2.62v0.444c0,0.12,0,0.242,0,0.363c0,0.117,0.021,0.227,0.065,0.321
		c0.009,0.025,0.034,0.053,0.066,0.076c0.032,0.033,0.068,0.043,0.068,0.043c0.116,0.028,0.211,0,0.296-0.081
		c0.089-0.083,0.151-0.14,0.193-0.178c0.105-0.108,0.211-0.219,0.319-0.328c0.107-0.105,0.213-0.217,0.304-0.342
		c0.041-0.025,0.1-0.074,0.163-0.139c0.053-0.052,0.107-0.109,0.158-0.17c0.058-0.065,0.107-0.128,0.142-0.194
		c0.031-0.025,0.056-0.048,0.084-0.062c0.026-0.012,0.053-0.029,0.079-0.057c0.065-0.108,0.147-0.194,0.245-0.273
		c0.092-0.072,0.173-0.155,0.239-0.252c0.082-0.108,0.155-0.194,0.221-0.267c0.027-0.009,0.059-0.037,0.099-0.075
		c0.163-0.214,0.344-0.41,0.55-0.582c0.2-0.178,0.379-0.374,0.542-0.588l0.101-0.096c0.042-0.047,0.079-0.081,0.121-0.125
		c0.042-0.042,0.079-0.086,0.124-0.142c0.013-0.028,0.023-0.047,0.039-0.053c0.011-0.005,0.032-0.022,0.058-0.048
		c0.079-0.053,0.14-0.131,0.185-0.224c0.026-0.025,0.059-0.055,0.101-0.079c0.041-0.028,0.073-0.057,0.1-0.079
		c0.037-0.07,0.084-0.13,0.14-0.183c0.056-0.058,0.108-0.11,0.161-0.184c0.025-0.025,0.053-0.044,0.071-0.058
		c0.023-0.016,0.044-0.036,0.07-0.062c0.093-0.138,0.2-0.25,0.321-0.354c0.124-0.102,0.274-0.167,0.469-0.211
		c0.101-0.028,0.229-0.035,0.369-0.03c0.143,0.002,0.271,0.01,0.395,0.01h1.551c0.147,0,0.309-0.008,0.478-0.01
		c0.163-0.005,0.294,0.021,0.39,0.094c0.078,0.062,0.102,0.141,0.06,0.228c-0.039,0.09-0.073,0.158-0.097,0.209
		c-0.073,0.071-0.137,0.136-0.206,0.192c-0.068,0.064-0.137,0.124-0.199,0.194c-0.095,0.108-0.186,0.209-0.273,0.304
		c-0.085,0.094-0.183,0.188-0.291,0.284c-0.468,0.468-0.945,0.944-1.411,1.43c-0.468,0.483-0.942,0.961-1.412,1.428
		c-0.216,0.246-0.444,0.473-0.684,0.688c-0.095,0.095-0.185,0.184-0.269,0.269c-0.074,0.092-0.132,0.21-0.158,0.36
		c-0.026,0.104-0.005,0.209,0.06,0.308c0.072,0.103,0.124,0.184,0.161,0.25c0.135,0.202,0.274,0.4,0.414,0.599
		c0.14,0.197,0.276,0.388,0.418,0.595c0.559,0.808,1.125,1.598,1.69,2.394c0.566,0.782,1.128,1.581,1.697,2.382l0.716,1.027
		c0.058,0.083,0.115,0.163,0.174,0.236c0.068,0.068,0.12,0.153,0.173,0.227c0.043,0.073,0.09,0.163,0.143,0.284
		c0.053,0.122,0.031,0.216-0.061,0.285C205.398,46.27,205.262,46.296,205.087,46.296z"/>
	<path fill="#ffffff" d="M172.36,38.551c-0.008-0.048-0.01-0.101-0.005-0.148c0.005-0.047-0.003-0.099-0.032-0.152
		c-0.021-0.103-0.042-0.213-0.048-0.313c-0.01-0.099-0.025-0.199-0.053-0.29c0-0.065-0.01-0.14-0.041-0.222
		c-0.037-0.146-0.076-0.296-0.116-0.443c-0.042-0.146-0.1-0.297-0.164-0.442c-0.292-0.684-0.726-1.243-1.282-1.663
		c-0.553-0.426-1.332-0.638-2.324-0.638c-0.029,0.014-0.059,0.016-0.092,0.009c-0.035-0.001-0.066-0.001-0.094,0.013
		c-0.052,0.011-0.107,0.016-0.16,0.007c-0.05-0.007-0.113,0.004-0.182,0.03c-0.147,0.028-0.294,0.061-0.432,0.091
		c-0.142,0.036-0.274,0.08-0.395,0.132c-0.562,0.242-1.009,0.577-1.341,1.008c-0.329,0.436-0.593,0.95-0.798,1.556
		c-0.037,0.146-0.068,0.289-0.084,0.434c-0.027,0.14-0.053,0.284-0.096,0.431c-0.016,0.054-0.021,0.104-0.021,0.151
		c0,0.049-0.008,0.1-0.021,0.151c-0.023,0.064-0.031,0.141-0.021,0.224c0.016,0.077,0.016,0.153,0,0.22
		c-0.026,0.067-0.042,0.195-0.048,0.373c-0.008,0.183,0.006,0.308,0.032,0.373v0.222c0.013,0.055,0.016,0.112,0.016,0.171
		c0,0.063,0.01,0.121,0.021,0.174c0,0.053,0.006,0.105,0.012,0.15c0.007,0.044,0.01,0.097,0.01,0.149
		c0.042,0.147,0.068,0.298,0.089,0.445c0.027,0.145,0.062,0.287,0.111,0.424c0.15,0.432,0.332,0.827,0.548,1.195
		c0.213,0.376,0.484,0.671,0.803,0.902c0.066,0.063,0.137,0.121,0.213,0.164c0.075,0.036,0.148,0.073,0.232,0.12
		c0.147,0.09,0.306,0.164,0.477,0.217c0.169,0.058,0.345,0.104,0.529,0.163c0.068,0.025,0.135,0.037,0.192,0.031
		c0.061-0.006,0.126-0.006,0.191,0.011c0.082,0.021,0.161,0.042,0.248,0.042c0.077,0,0.164,0,0.259,0h0.157
		c0.069-0.021,0.129-0.021,0.185-0.011c0.053,0.005,0.116-0.011,0.182-0.031c0.137-0.026,0.269-0.048,0.403-0.074
		c0.131-0.016,0.258-0.053,0.385-0.11c0.573-0.227,1.026-0.521,1.358-0.885c0.332-0.364,0.605-0.833,0.837-1.413
		c0.068-0.147,0.121-0.311,0.15-0.484c0.034-0.174,0.076-0.348,0.134-0.521l0.059-0.485c0.016-0.053,0.016-0.11,0.016-0.174
		c0-0.059,0-0.121,0-0.191v-0.157c0.034-0.069,0.048-0.17,0.048-0.294c0-0.129-0.014-0.226-0.048-0.295V38.551z"/>
</g>
</svg>
