<?xml version="1.0" encoding="utf-8"?>
<!-- Generator: Adobe Illustrator 16.0.0, SVG Export Plug-In . SVG Version: 6.00 Build 0)  -->
<!DOCTYPE svg PUBLIC "-//W3C//DTD SVG 1.1//EN" "http://www.w3.org/Graphics/SVG/1.1/DTD/svg11.dtd">
<svg version="1.1" id="Layer_1" xmlns="http://www.w3.org/2000/svg" xmlns:xlink="http://www.w3.org/1999/xlink" x="0px" y="0px"
	 width="208px" height="77px" viewBox="0 0 208 77" enable-background="new 0 0 208 77" xml:space="preserve">
<g>
	<path fill="#1D1D1B" d="M8.743,31.737c1.381-0.027,2.519,0.21,3.417,0.71c0.896,0.501,1.605,1.164,2.131,1.995
		c0.148,0.223,0.267,0.451,0.357,0.682c0.093,0.231,0.181,0.484,0.257,0.761c0.026,0.091,0.051,0.196,0.081,0.316
		c0.028,0.117,0.018,0.231-0.023,0.336c-0.026,0.079-0.072,0.128-0.145,0.149c-0.073,0.02-0.155,0.043-0.249,0.067h-0.16
		c-0.077,0.027-0.165,0.038-0.263,0.031c-0.101-0.008-0.196-0.011-0.289-0.011c-0.119,0-0.258,0.003-0.424,0.011
		c-0.165,0.007-0.328,0.007-0.485,0c-0.161-0.008-0.305-0.021-0.434-0.042c-0.134-0.021-0.231-0.05-0.298-0.088
		c-0.104-0.092-0.181-0.218-0.238-0.374c-0.049-0.158-0.119-0.298-0.196-0.417c-0.25-0.434-0.578-0.775-0.988-1.027
		c-0.276-0.172-0.586-0.31-0.927-0.413c-0.227-0.08-0.505-0.119-0.841-0.119c-0.335,0-0.629,0.032-0.877,0.099
		c-0.108,0.027-0.201,0.049-0.286,0.07c-0.086,0.017-0.179,0.047-0.269,0.087c-0.896,0.382-1.527,1.015-1.896,1.897
		c-0.068,0.158-0.124,0.323-0.179,0.494c-0.054,0.172-0.111,0.349-0.178,0.533c-0.01,0.093-0.026,0.181-0.042,0.256
		c-0.01,0.081-0.026,0.166-0.036,0.258c-0.026,0.078-0.036,0.162-0.031,0.248c0.01,0.086,0,0.174-0.028,0.266
		c-0.029,0.104-0.039,0.215-0.031,0.326c0.008,0.111,0.011,0.221,0.011,0.326c0,0.053-0.003,0.105-0.011,0.156
		c-0.007,0.055-0.002,0.109,0.011,0.16v0.178c0.027,0.064,0.036,0.133,0.027,0.199c-0.005,0.064,0.006,0.129,0.034,0.197
		c0,0.078,0.011,0.186,0.036,0.314c0.029,0.146,0.055,0.279,0.081,0.406c0.025,0.125,0.059,0.246,0.101,0.363
		c0.183,0.553,0.42,1.025,0.709,1.414c0.289,0.393,0.67,0.707,1.146,0.961c0.145,0.066,0.296,0.117,0.454,0.164
		c0.161,0.047,0.33,0.098,0.516,0.15c0.062,0.01,0.128,0.02,0.186,0.031c0.06,0.006,0.122,0.01,0.186,0.01h0.16
		c0.067,0.025,0.152,0.037,0.258,0.025C9.182,43.89,9.27,43.88,9.337,43.87c0.077,0,0.134-0.01,0.175-0.021
		c0.158-0.025,0.305-0.051,0.444-0.076c0.14-0.031,0.274-0.078,0.406-0.141c0.301-0.135,0.562-0.305,0.781-0.525
		c0.217-0.217,0.408-0.465,0.584-0.74c0.077-0.135,0.142-0.277,0.195-0.436c0.052-0.158,0.114-0.318,0.176-0.473
		c0.041-0.146,0.08-0.277,0.119-0.396c0.041-0.119,0.126-0.213,0.26-0.277c0.075-0.027,0.175-0.039,0.294-0.039h0.335h1.205h0.367
		c0.124,0,0.227,0.025,0.308,0.078c0.09,0.068,0.141,0.172,0.146,0.316c0.008,0.148-0.01,0.283-0.049,0.418l-0.121,0.531
		c-0.062,0.201-0.129,0.389-0.187,0.572c-0.059,0.188-0.134,0.363-0.227,0.539c-0.065,0.104-0.12,0.205-0.158,0.303
		c-0.039,0.098-0.092,0.191-0.157,0.283c-0.728,1.137-1.78,1.928-3.164,2.377c-0.142,0.051-0.289,0.086-0.434,0.117
		c-0.144,0.025-0.289,0.051-0.433,0.076c-0.067,0.027-0.129,0.037-0.188,0.031c-0.06-0.01-0.122,0.006-0.189,0.027
		c-0.09,0-0.181,0.004-0.268,0.01c-0.083,0.01-0.171,0.021-0.264,0.031H8.981H8.624c-0.119,0-0.231-0.01-0.335-0.041
		c-0.041-0.012-0.108-0.018-0.201-0.018c-0.091-0.014-0.186-0.023-0.276-0.041c-0.09-0.01-0.188-0.025-0.296-0.041
		c-0.129-0.035-0.258-0.07-0.384-0.098c-0.126-0.025-0.254-0.055-0.385-0.098c-0.119-0.041-0.237-0.082-0.357-0.129
		c-0.118-0.047-0.232-0.094-0.334-0.145c-0.79-0.346-1.46-0.807-2.008-1.373c-0.542-0.578-0.988-1.254-1.333-2.049
		c-0.076-0.197-0.145-0.395-0.195-0.59c-0.052-0.201-0.113-0.402-0.181-0.615c-0.026-0.066-0.036-0.121-0.036-0.17
		c0-0.043-0.008-0.092-0.021-0.145c-0.026-0.121-0.046-0.246-0.06-0.377c-0.013-0.135-0.034-0.258-0.059-0.377
		c-0.026-0.064-0.036-0.117-0.031-0.166c0.007-0.045,0.005-0.096-0.011-0.148v-0.375c-0.025-0.066-0.038-0.166-0.038-0.297
		s0.013-0.23,0.038-0.297c0.016-0.041,0.019-0.082,0.011-0.129c-0.005-0.045-0.011-0.082-0.011-0.107v-0.18
		c0.03-0.104,0.045-0.217,0.052-0.334c0.005-0.119,0.015-0.238,0.026-0.355c0.031-0.105,0.049-0.209,0.061-0.307
		c0.014-0.1,0.034-0.201,0.057-0.309c0.057-0.182,0.101-0.362,0.142-0.541c0.039-0.178,0.09-0.346,0.158-0.504
		c0.067-0.173,0.134-0.344,0.207-0.515c0.072-0.17,0.154-0.327,0.248-0.474c0.211-0.369,0.428-0.698,0.65-0.988
		c0.067-0.092,0.14-0.178,0.216-0.256c0.083-0.079,0.16-0.157,0.238-0.238c0.33-0.328,0.676-0.609,1.037-0.84
		c0.362-0.23,0.775-0.438,1.239-0.62c0.155-0.067,0.322-0.122,0.49-0.168c0.17-0.047,0.351-0.092,0.531-0.13
		c0.083-0.026,0.161-0.039,0.24-0.039c0.081,0,0.153-0.015,0.22-0.039c0.103-0.013,0.207-0.022,0.304-0.032
		c0.098-0.005,0.202-0.016,0.307-0.026c0.023-0.015,0.06-0.015,0.098,0C8.681,31.748,8.717,31.748,8.743,31.737"/>
	<path fill="#1D1D1B" d="M30.554,38.632c0.026,0.078,0.042,0.215,0.052,0.404c0.005,0.193-0.005,0.326-0.031,0.404v0.258
		c-0.028,0.131-0.041,0.271-0.041,0.416c0,0.146-0.011,0.289-0.039,0.432c-0.028,0.098-0.049,0.188-0.06,0.277
		c-0.013,0.096-0.033,0.186-0.057,0.279c-0.067,0.238-0.129,0.467-0.19,0.691c-0.06,0.223-0.134,0.438-0.225,0.65
		c-0.397,0.924-0.932,1.688-1.602,2.303c-0.674,0.615-1.502,1.084-2.488,1.416c-0.147,0.051-0.292,0.086-0.433,0.117
		c-0.15,0.025-0.294,0.051-0.439,0.076c-0.066,0.027-0.134,0.041-0.206,0.041c-0.073,0-0.139,0.008-0.207,0.018l-0.653,0.062
		c-0.052,0.01-0.144,0.014-0.276,0.01c-0.134-0.006-0.216-0.021-0.258-0.031c-0.063-0.01-0.128-0.016-0.186-0.01
		c-0.062,0.01-0.123,0.004-0.186-0.012h-0.22c-0.105-0.025-0.205-0.041-0.296-0.047c-0.093-0.01-0.191-0.025-0.299-0.051
		c-0.104-0.025-0.207-0.047-0.315-0.066c-0.104-0.021-0.211-0.041-0.315-0.072c-0.144-0.053-0.293-0.104-0.443-0.156
		c-0.153-0.051-0.3-0.113-0.444-0.18c-0.793-0.342-1.461-0.801-2.008-1.373s-0.991-1.254-1.331-2.045
		c-0.083-0.184-0.146-0.377-0.199-0.584c-0.052-0.203-0.113-0.406-0.178-0.619c-0.025-0.066-0.041-0.123-0.041-0.17
		c0-0.045-0.006-0.096-0.021-0.148c-0.026-0.094-0.042-0.188-0.058-0.285c-0.012-0.098-0.034-0.201-0.056-0.307
		c-0.016-0.064-0.021-0.131-0.014-0.188c0.009-0.057-0.002-0.115-0.027-0.168c-0.016-0.078-0.016-0.162,0-0.246
		c0.012-0.086,0.012-0.17,0-0.248c-0.026-0.066-0.042-0.168-0.042-0.305c0-0.141,0.016-0.242,0.042-0.309
		c0.012-0.066,0.012-0.129,0-0.188c-0.016-0.059-0.016-0.119,0-0.186v-0.121c0.025-0.09,0.036-0.182,0.027-0.266
		c-0.007-0.088,0.006-0.167,0.029-0.248c0.029-0.064,0.041-0.134,0.041-0.206c0-0.073,0.016-0.14,0.04-0.208
		c0.069-0.225,0.12-0.444,0.157-0.661c0.041-0.218,0.101-0.432,0.18-0.645c0.104-0.222,0.202-0.446,0.295-0.67
		c0.093-0.226,0.206-0.435,0.338-0.634c0.395-0.632,0.849-1.16,1.36-1.58c0.515-0.421,1.141-0.782,1.877-1.087
		c0.171-0.065,0.354-0.118,0.542-0.156c0.193-0.042,0.382-0.088,0.562-0.14c0.069-0.025,0.129-0.039,0.191-0.039
		c0.06,0,0.118-0.008,0.188-0.021l0.591-0.06c0.026-0.013,0.065-0.013,0.108,0c0.047,0.014,0.083,0.014,0.108,0
		c0.937-0.024,1.745,0.069,2.431,0.286c0.687,0.218,1.295,0.519,1.838,0.901c0.17,0.117,0.348,0.252,0.537,0.404
		c0.18,0.151,0.335,0.306,0.452,0.463c0.063,0.068,0.131,0.136,0.198,0.208c0.062,0.074,0.124,0.143,0.175,0.207
		c0.148,0.213,0.29,0.426,0.434,0.643c0.149,0.218,0.274,0.45,0.379,0.702c0.08,0.186,0.147,0.36,0.209,0.533
		c0.054,0.171,0.118,0.355,0.183,0.553c0.041,0.132,0.074,0.268,0.101,0.406c0.026,0.139,0.062,0.279,0.098,0.424
		c0.026,0.093,0.042,0.182,0.042,0.268c0,0.085,0.01,0.167,0.036,0.246c0.026,0.078,0.036,0.162,0.031,0.249
		c-0.008,0.085-0.005,0.159,0.01,0.226V38.632z M27.491,39.462c0.029-0.066,0.039-0.16,0.039-0.285s-0.01-0.223-0.039-0.289v-0.334
		c-0.013-0.053-0.018-0.104-0.007-0.15c0.005-0.045-0.005-0.095-0.031-0.147c-0.026-0.104-0.041-0.206-0.049-0.308
		c-0.008-0.098-0.023-0.192-0.049-0.284c0-0.069-0.015-0.142-0.041-0.218c-0.039-0.145-0.077-0.289-0.117-0.435
		c-0.041-0.146-0.092-0.291-0.16-0.437c-0.289-0.671-0.704-1.214-1.251-1.63c-0.547-0.414-1.311-0.62-2.284-0.62
		c-0.029,0.012-0.056,0.014-0.09,0.009c-0.031-0.005-0.062-0.002-0.088,0.011c-0.051,0.012-0.108,0.016-0.16,0.009
		c-0.052-0.007-0.108,0.003-0.175,0.028c-0.146,0.027-0.287,0.059-0.424,0.092c-0.142,0.031-0.268,0.075-0.387,0.126
		c-0.555,0.237-0.99,0.567-1.315,0.988c-0.326,0.424-0.583,0.931-0.78,1.524c-0.041,0.143-0.07,0.285-0.088,0.424
		c-0.02,0.138-0.051,0.279-0.09,0.424c-0.013,0.052-0.019,0.103-0.019,0.148s-0.007,0.096-0.02,0.147
		c-0.026,0.067-0.034,0.138-0.021,0.218c0.016,0.08,0.016,0.152,0,0.217c-0.026,0.066-0.041,0.191-0.048,0.365
		c-0.008,0.178,0.002,0.301,0.028,0.367v0.215c0.015,0.055,0.02,0.111,0.02,0.17c0,0.061,0.008,0.115,0.021,0.168
		c0,0.053,0.002,0.102,0.01,0.146c0.005,0.047,0.01,0.098,0.01,0.148c0.039,0.145,0.068,0.289,0.088,0.434s0.056,0.283,0.108,0.418
		c0.145,0.42,0.323,0.812,0.535,1.172c0.209,0.363,0.474,0.656,0.789,0.885c0.065,0.062,0.137,0.113,0.209,0.154
		c0.072,0.043,0.145,0.084,0.228,0.119c0.141,0.092,0.299,0.166,0.464,0.217c0.165,0.053,0.338,0.107,0.521,0.16
		c0.067,0.025,0.129,0.037,0.19,0.031c0.058-0.01,0.122-0.006,0.187,0.01c0.077,0.025,0.16,0.037,0.238,0.037H23.7h0.155
		c0.068-0.012,0.124-0.018,0.182-0.012c0.051,0.012,0.108,0,0.175-0.025c0.133-0.031,0.263-0.053,0.396-0.072
		c0.13-0.021,0.256-0.057,0.373-0.107c0.567-0.223,1.014-0.512,1.337-0.867c0.319-0.357,0.593-0.816,0.815-1.387
		c0.072-0.145,0.118-0.301,0.151-0.473s0.075-0.342,0.129-0.512l0.057-0.477c0.013-0.053,0.02-0.107,0.02-0.168v-0.189V39.462z"/>
	<path fill="#1D1D1B" d="M33.262,32.072h1.677c0.146,0,0.29,0.004,0.426,0.008c0.139,0.006,0.242,0.057,0.307,0.148
		c0.064,0.094,0.101,0.215,0.101,0.366v0.484v1.799v5.986v1.166c0,0.104-0.005,0.207-0.01,0.305c-0.005,0.1,0.002,0.193,0.026,0.285
		v0.203c0,0.086,0.005,0.18,0.012,0.266c0.002,0.084,0.024,0.162,0.049,0.225c0.091,0.174,0.276,0.256,0.553,0.256h0.81h3.834
		c0.104,0,0.236-0.004,0.393-0.01c0.161-0.004,0.31-0.004,0.454,0c0.145,0.006,0.281,0.027,0.406,0.051
		c0.126,0.027,0.209,0.068,0.25,0.121c0.062,0.074,0.098,0.176,0.098,0.293v0.379v0.906c0,0.107,0.002,0.207,0.01,0.301
		c0.005,0.086-0.005,0.17-0.031,0.236c-0.051,0.102-0.118,0.176-0.198,0.217c-0.064,0.051-0.163,0.078-0.294,0.078h-0.377h-1.401
		h-5.355h-1.422c-0.186,0-0.346-0.01-0.485-0.031c-0.14-0.021-0.242-0.082-0.306-0.186c-0.055-0.078-0.081-0.18-0.081-0.311v-0.361
		V43.87v-5.238v-4.467v-1.242c0-0.12,0.005-0.238,0.011-0.356c0.006-0.119,0.03-0.213,0.07-0.277
		c0.054-0.093,0.157-0.158,0.317-0.198c0.025-0.012,0.051-0.015,0.077-0.011C33.208,32.086,33.233,32.085,33.262,32.072"/>
	<path fill="#1D1D1B" d="M44.978,32.072h1.68c0.145,0,0.287,0.004,0.426,0.008c0.136,0.006,0.24,0.057,0.304,0.148
		c0.064,0.094,0.101,0.215,0.101,0.366v0.484v1.799v5.986v1.166c0,0.104-0.005,0.207-0.01,0.305c-0.01,0.1,0.001,0.193,0.031,0.285
		v0.203c0,0.086,0,0.18,0.01,0.266c0.005,0.084,0.021,0.162,0.046,0.225c0.089,0.174,0.278,0.256,0.552,0.256h0.81h3.834
		c0.103,0,0.238-0.004,0.393-0.01c0.16-0.004,0.309-0.004,0.454,0c0.149,0.006,0.281,0.027,0.408,0.051
		c0.124,0.027,0.207,0.068,0.247,0.121c0.065,0.074,0.097,0.176,0.097,0.293v0.379v0.906c0,0.107,0.002,0.207,0.012,0.301
		c0.005,0.086-0.005,0.17-0.031,0.236c-0.051,0.102-0.118,0.176-0.199,0.217c-0.064,0.051-0.162,0.078-0.297,0.078h-0.371h-1.406
		h-5.353h-1.422c-0.187,0-0.346-0.01-0.485-0.031c-0.139-0.021-0.242-0.082-0.306-0.186c-0.052-0.078-0.081-0.18-0.081-0.311v-0.361
		V43.87v-5.238v-4.467v-1.242c0-0.12,0.005-0.238,0.013-0.356c0.007-0.119,0.029-0.213,0.068-0.277
		c0.054-0.093,0.157-0.158,0.317-0.198c0.025-0.012,0.051-0.015,0.076-0.011C44.924,32.086,44.952,32.085,44.978,32.072"/>
	<path fill="#1D1D1B" d="M56.676,32.072h7.388h1.717c0.159,0,0.314,0.007,0.454,0.019c0.148,0.014,0.252,0.067,0.317,0.158
		c0.028,0.04,0.043,0.086,0.054,0.14c0.005,0.052,0.021,0.105,0.047,0.156v0.217c0.009,0.094,0.015,0.193,0.007,0.298
		c-0.007,0.105-0.007,0.205-0.007,0.296c0,0.104,0,0.206,0.007,0.308c0.007,0.099,0.001,0.193-0.007,0.285
		c-0.016,0.066-0.021,0.166-0.021,0.297c-0.039,0.158-0.103,0.261-0.196,0.316c-0.08,0.051-0.175,0.079-0.297,0.079h-0.374h-1.365
		h-3.574c-0.109,0-0.23-0.003-0.366-0.011c-0.139-0.006-0.279-0.006-0.417,0c-0.135,0.008-0.265,0.021-0.382,0.04
		c-0.119,0.021-0.204,0.048-0.258,0.089c-0.092,0.065-0.147,0.162-0.168,0.287c-0.021,0.123-0.027,0.266-0.027,0.425v1.124v0.574
		c0.025,0.105,0.051,0.193,0.076,0.268c0.027,0.072,0.072,0.129,0.14,0.168c0.077,0.051,0.171,0.082,0.279,0.088
		c0.104,0.007,0.216,0.01,0.335,0.01h1.063h3.4c0.092,0,0.207-0.003,0.346-0.01c0.135-0.006,0.272-0.006,0.403,0
		c0.134,0.007,0.256,0.018,0.366,0.031c0.114,0.012,0.194,0.037,0.248,0.078c0.066,0.039,0.111,0.118,0.135,0.236
		c0.029,0.119,0.046,0.248,0.054,0.385c0.008,0.139,0.008,0.281,0,0.426c-0.007,0.146-0.013,0.271-0.013,0.375v0.277
		c0,0.094-0.012,0.172-0.041,0.238c-0.023,0.104-0.075,0.191-0.155,0.254c-0.067,0.041-0.156,0.066-0.268,0.082
		c-0.11,0.012-0.238,0.018-0.372,0.018c-0.139,0-0.279-0.002-0.418-0.006c-0.134-0.01-0.254-0.012-0.346-0.012h-3.85
		c-0.16,0-0.31-0.006-0.454-0.01c-0.145-0.01-0.284,0-0.405,0.021c-0.128,0.014-0.231,0.055-0.317,0.113
		c-0.085,0.061-0.148,0.152-0.187,0.266c-0.015,0.07-0.02,0.139-0.02,0.211v0.207v0.75v1.105c0,0.16,0.007,0.299,0.027,0.43
		c0.021,0.123,0.076,0.221,0.168,0.283c0.041,0.039,0.088,0.062,0.15,0.072c0.057,0.004,0.121,0.02,0.186,0.045h0.196
		c0.067,0.018,0.139,0.018,0.222,0.012c0.077-0.006,0.15-0.012,0.217-0.012H61.2h3.713h1.048h0.307c0.095,0,0.188,0.021,0.266,0.062
		c0.103,0.037,0.18,0.109,0.216,0.217c0.026,0.068,0.044,0.145,0.052,0.238c0.005,0.094,0.01,0.189,0.01,0.293v0.91
		c0,0.158-0.01,0.303-0.023,0.447c-0.013,0.135-0.069,0.238-0.175,0.305c-0.08,0.062-0.184,0.1-0.307,0.1h-0.405H64.42h-5.851
		h-1.559c-0.186,0-0.349-0.01-0.485-0.031c-0.137-0.021-0.238-0.082-0.307-0.186c-0.052-0.078-0.081-0.18-0.081-0.311v-0.361v-1.424
		v-5.377v-4.307v-1.223v-0.356c0-0.119,0.028-0.213,0.081-0.277c0.055-0.093,0.152-0.158,0.3-0.198
		c0.022-0.012,0.048-0.015,0.074-0.011C56.621,32.086,56.65,32.085,56.676,32.072"/>
	<path fill="#1D1D1B" d="M74.988,31.737c1.385-0.027,2.524,0.21,3.417,0.71c0.898,0.501,1.61,1.164,2.137,1.995
		c0.145,0.223,0.263,0.451,0.356,0.682c0.092,0.231,0.178,0.484,0.258,0.761c0.026,0.091,0.051,0.196,0.077,0.316
		c0.026,0.117,0.021,0.231-0.02,0.336c-0.026,0.079-0.076,0.128-0.146,0.149c-0.075,0.02-0.16,0.043-0.25,0.067H80.66
		c-0.077,0.027-0.17,0.038-0.269,0.031c-0.098-0.008-0.19-0.011-0.284-0.011c-0.118,0-0.263,0.003-0.423,0.011
		c-0.166,0.007-0.331,0.007-0.485,0c-0.16-0.008-0.302-0.021-0.437-0.042c-0.131-0.021-0.229-0.05-0.296-0.088
		c-0.105-0.092-0.186-0.218-0.238-0.374c-0.051-0.158-0.115-0.298-0.196-0.417c-0.25-0.434-0.578-0.775-0.985-1.027
		c-0.279-0.172-0.588-0.31-0.928-0.413c-0.229-0.08-0.506-0.119-0.842-0.119s-0.63,0.032-0.877,0.099
		c-0.108,0.027-0.2,0.049-0.289,0.07c-0.087,0.017-0.175,0.047-0.265,0.087c-0.896,0.382-1.531,1.015-1.897,1.897
		c-0.066,0.158-0.126,0.323-0.178,0.494c-0.054,0.172-0.114,0.349-0.178,0.533c-0.015,0.093-0.026,0.181-0.042,0.256
		c-0.01,0.081-0.025,0.166-0.039,0.258c-0.027,0.078-0.036,0.162-0.027,0.248c0.005,0.086-0.005,0.174-0.031,0.266
		c-0.026,0.104-0.036,0.215-0.029,0.326c0.009,0.111,0.011,0.221,0.011,0.326c0,0.053-0.002,0.105-0.011,0.156
		c-0.007,0.055-0.002,0.109,0.011,0.16v0.178c0.026,0.064,0.034,0.133,0.028,0.199c-0.006,0.064,0,0.129,0.03,0.197
		c0,0.078,0.011,0.186,0.039,0.314c0.028,0.146,0.051,0.279,0.08,0.406c0.026,0.125,0.056,0.246,0.099,0.363
		c0.182,0.553,0.42,1.025,0.711,1.414c0.289,0.393,0.671,0.707,1.144,0.961c0.146,0.066,0.296,0.117,0.457,0.164
		s0.328,0.098,0.514,0.15c0.064,0.01,0.126,0.02,0.189,0.031c0.056,0.006,0.118,0.01,0.185,0.01h0.158
		c0.066,0.025,0.151,0.037,0.257,0.025c0.103-0.006,0.191-0.016,0.256-0.025c0.08,0,0.14-0.01,0.178-0.021
		c0.159-0.025,0.307-0.051,0.447-0.076c0.139-0.031,0.272-0.078,0.403-0.141c0.304-0.135,0.565-0.305,0.784-0.525
		c0.216-0.217,0.41-0.465,0.578-0.74c0.082-0.135,0.148-0.277,0.196-0.436c0.056-0.158,0.114-0.318,0.184-0.473
		c0.039-0.146,0.08-0.277,0.116-0.396c0.039-0.119,0.124-0.213,0.255-0.277c0.081-0.027,0.184-0.039,0.297-0.039h0.335h1.208h0.366
		c0.124,0,0.228,0.025,0.305,0.078c0.093,0.068,0.142,0.172,0.15,0.316c0.005,0.148-0.011,0.283-0.052,0.418l-0.118,0.531
		c-0.067,0.201-0.13,0.389-0.187,0.572c-0.059,0.188-0.134,0.363-0.227,0.539c-0.067,0.104-0.119,0.205-0.158,0.303
		c-0.04,0.098-0.092,0.191-0.159,0.283c-0.725,1.137-1.778,1.928-3.163,2.377c-0.144,0.051-0.288,0.086-0.432,0.117
		c-0.148,0.025-0.29,0.051-0.434,0.076c-0.067,0.027-0.132,0.037-0.189,0.031c-0.059-0.01-0.121,0.006-0.188,0.027
		c-0.092,0-0.18,0.004-0.268,0.01c-0.085,0.01-0.175,0.021-0.266,0.031h-0.318h-0.356c-0.116,0-0.227-0.01-0.333-0.041
		c-0.039-0.012-0.106-0.018-0.198-0.018c-0.094-0.014-0.187-0.023-0.277-0.041c-0.093-0.01-0.194-0.025-0.296-0.041
		c-0.134-0.035-0.259-0.07-0.388-0.098c-0.124-0.025-0.253-0.055-0.382-0.098c-0.119-0.041-0.237-0.082-0.356-0.129
		s-0.232-0.094-0.335-0.145c-0.793-0.346-1.461-0.807-2.008-1.373c-0.548-0.578-0.992-1.254-1.333-2.049
		c-0.08-0.197-0.145-0.395-0.198-0.59c-0.054-0.201-0.11-0.402-0.178-0.615c-0.026-0.066-0.042-0.121-0.042-0.17
		c0-0.043-0.005-0.092-0.018-0.145c-0.029-0.121-0.046-0.246-0.057-0.377c-0.013-0.135-0.034-0.258-0.064-0.377
		c-0.025-0.064-0.034-0.117-0.025-0.166c0.005-0.045,0-0.096-0.011-0.148v-0.375c-0.025-0.066-0.042-0.166-0.042-0.297
		s0.016-0.23,0.042-0.297c0.011-0.041,0.016-0.082,0.011-0.129c-0.008-0.045-0.011-0.082-0.011-0.107v-0.18
		c0.026-0.104,0.042-0.217,0.049-0.334c0.008-0.119,0.018-0.238,0.028-0.355c0.025-0.105,0.046-0.209,0.059-0.307
		c0.014-0.1,0.034-0.201,0.061-0.309c0.051-0.182,0.1-0.362,0.139-0.541c0.038-0.178,0.092-0.346,0.157-0.504
		c0.066-0.173,0.137-0.344,0.209-0.515c0.072-0.17,0.154-0.327,0.248-0.474c0.209-0.369,0.428-0.698,0.649-0.988
		c0.066-0.092,0.14-0.178,0.218-0.256c0.077-0.079,0.16-0.157,0.236-0.238c0.331-0.328,0.677-0.609,1.039-0.84
		c0.36-0.23,0.774-0.438,1.233-0.62c0.159-0.067,0.322-0.122,0.498-0.168c0.168-0.047,0.348-0.092,0.529-0.13
		c0.081-0.026,0.161-0.039,0.243-0.039c0.076,0,0.148-0.015,0.217-0.039c0.103-0.013,0.206-0.022,0.304-0.032
		c0.099-0.005,0.203-0.016,0.306-0.026c0.025-0.015,0.059-0.015,0.097,0C74.932,31.748,74.961,31.748,74.988,31.737"/>
	<path fill="#1D1D1B" d="M90.933,32.072h2.015c0.171,0,0.341,0.004,0.506,0.008c0.165,0.006,0.299,0.044,0.402,0.109
		c0.041,0.027,0.072,0.07,0.093,0.128c0.015,0.061,0.034,0.123,0.046,0.188v0.1c0.014,0.052,0.021,0.112,0.021,0.178v0.196v0.771
		c0,0.091,0.002,0.183,0.011,0.265c0.004,0.087-0.005,0.171-0.032,0.25c-0.067,0.224-0.195,0.341-0.392,0.355
		c-0.197,0.012-0.439,0.02-0.715,0.02h-2.012c-0.266,0-0.493,0.01-0.684,0.029c-0.191,0.021-0.318,0.143-0.382,0.366
		c-0.015,0.063-0.015,0.124,0,0.176c0.01,0.055,0.005,0.113-0.023,0.179c-0.012,0.08-0.012,0.168-0.007,0.267
		c0.005,0.1,0.007,0.188,0.007,0.267v1.759v5.693v1.857c0,0.211-0.007,0.391-0.028,0.541s-0.103,0.258-0.248,0.326
		c-0.094,0.023-0.197,0.041-0.314,0.041H88.86h-1.344c-0.147,0-0.279-0.006-0.406-0.021c-0.124-0.016-0.221-0.057-0.289-0.141
		c-0.065-0.102-0.098-0.234-0.098-0.4v-0.508v-1.975v-5.492v-1.681c0-0.093,0.005-0.188,0.01-0.286c0.005-0.099,0-0.188-0.025-0.268
		c-0.016-0.063-0.016-0.125,0-0.176c0.01-0.054,0.005-0.105-0.021-0.158c-0.067-0.224-0.201-0.346-0.408-0.366
		c-0.203-0.02-0.443-0.029-0.719-0.029h-1.837c-0.146,0-0.308,0.003-0.483,0.01c-0.18,0.007-0.32-0.003-0.425-0.029
		c-0.106-0.039-0.184-0.101-0.24-0.181c-0.036-0.063-0.059-0.149-0.067-0.254c-0.005-0.106-0.011-0.212-0.011-0.316v-0.969
		c0-0.17,0.011-0.321,0.031-0.454c0.021-0.133,0.083-0.23,0.187-0.297c0.041-0.026,0.113-0.053,0.217-0.078h0.101H90.933z"/>
	<path fill="#1D1D1B" d="M96.169,32.092h1.698c0.144,0,0.283,0.003,0.419,0.009c0.128,0.007,0.229,0.057,0.293,0.147
		c0.067,0.094,0.104,0.212,0.108,0.356c0.007,0.145,0.01,0.303,0.01,0.475V34.8v6.855v3.242c0,0.17,0.003,0.361,0.01,0.572
		c0.005,0.211-0.02,0.367-0.087,0.475c-0.054,0.088-0.17,0.16-0.355,0.219c-0.094,0.023-0.191,0.029-0.296,0.02
		c-0.106-0.016-0.209-0.02-0.318-0.02h-1.166c-0.143,0-0.279-0.008-0.403-0.021c-0.129-0.018-0.23-0.053-0.305-0.119
		c-0.067-0.066-0.108-0.166-0.121-0.295c-0.014-0.135-0.021-0.273-0.021-0.418v-1.719v-7.212v-2.884
		c0-0.186-0.002-0.402-0.007-0.653c-0.007-0.251,0.021-0.428,0.087-0.533c0.052-0.079,0.137-0.145,0.258-0.196
		c0.041,0,0.077-0.005,0.108-0.012C96.115,32.095,96.144,32.092,96.169,32.092"/>
	<path fill="#1D1D1B" d="M114.703,38.632c0.027,0.078,0.043,0.215,0.049,0.404c0.01,0.193-0.002,0.326-0.027,0.404v0.258
		c-0.025,0.131-0.041,0.271-0.041,0.416c0,0.146-0.012,0.289-0.039,0.432c-0.027,0.098-0.045,0.188-0.059,0.277
		c-0.014,0.096-0.031,0.186-0.062,0.279c-0.064,0.238-0.125,0.467-0.186,0.691c-0.057,0.223-0.135,0.438-0.229,0.65
		c-0.391,0.924-0.928,1.688-1.596,2.303c-0.674,0.615-1.506,1.084-2.494,1.416c-0.143,0.051-0.287,0.086-0.436,0.117
		c-0.145,0.025-0.289,0.051-0.434,0.076c-0.064,0.027-0.135,0.041-0.207,0.041s-0.139,0.008-0.207,0.018l-0.648,0.062
		c-0.055,0.01-0.148,0.014-0.279,0.01c-0.133-0.006-0.217-0.021-0.258-0.031c-0.064-0.01-0.129-0.016-0.188-0.01
		c-0.059,0.01-0.119,0.004-0.188-0.012h-0.219c-0.104-0.025-0.201-0.041-0.295-0.047c-0.092-0.01-0.191-0.025-0.295-0.051
		c-0.107-0.025-0.211-0.047-0.318-0.066c-0.104-0.021-0.209-0.041-0.314-0.072c-0.145-0.053-0.295-0.104-0.445-0.156
		c-0.149-0.051-0.3-0.113-0.443-0.18c-0.79-0.342-1.459-0.801-2.005-1.373c-0.547-0.572-0.994-1.254-1.334-2.045
		c-0.081-0.184-0.147-0.377-0.197-0.584c-0.056-0.203-0.112-0.406-0.179-0.619c-0.027-0.066-0.036-0.123-0.036-0.17
		c0-0.045-0.011-0.096-0.021-0.148c-0.031-0.094-0.046-0.188-0.062-0.285c-0.013-0.098-0.031-0.201-0.056-0.307
		c-0.016-0.064-0.019-0.131-0.011-0.188c0.005-0.057-0.005-0.115-0.031-0.168c-0.013-0.078-0.013-0.162,0-0.246
		c0.012-0.086,0.012-0.17,0-0.248c-0.025-0.066-0.042-0.168-0.042-0.305c0-0.141,0.016-0.242,0.042-0.309
		c0.012-0.066,0.012-0.129,0-0.188c-0.013-0.059-0.013-0.119,0-0.186v-0.121c0.026-0.09,0.036-0.182,0.031-0.266
		c-0.008-0.088,0.002-0.167,0.028-0.248c0.025-0.064,0.039-0.134,0.039-0.206c0-0.073,0.016-0.14,0.041-0.208
		c0.065-0.225,0.119-0.444,0.155-0.661c0.042-0.218,0.103-0.432,0.182-0.645c0.103-0.222,0.2-0.446,0.294-0.67
		c0.093-0.226,0.206-0.435,0.335-0.634c0.397-0.632,0.852-1.16,1.365-1.58c0.513-0.421,1.138-0.782,1.878-1.087
		c0.168-0.065,0.35-0.118,0.543-0.156c0.189-0.042,0.381-0.088,0.564-0.14c0.062-0.025,0.127-0.039,0.188-0.039
		c0.057,0,0.121-0.008,0.186-0.021l0.594-0.06c0.023-0.013,0.061-0.013,0.107,0c0.047,0.014,0.084,0.014,0.109,0
		c0.934-0.024,1.744,0.069,2.434,0.286c0.684,0.218,1.297,0.519,1.834,0.901c0.17,0.117,0.352,0.252,0.533,0.404
		c0.184,0.151,0.336,0.306,0.459,0.463c0.062,0.068,0.127,0.136,0.195,0.208c0.064,0.074,0.123,0.143,0.176,0.207
		c0.145,0.213,0.291,0.426,0.438,0.643c0.141,0.218,0.27,0.45,0.371,0.702c0.082,0.186,0.15,0.36,0.207,0.533
		c0.062,0.171,0.125,0.355,0.191,0.553c0.039,0.132,0.07,0.268,0.098,0.406c0.025,0.139,0.057,0.279,0.1,0.424
		c0.025,0.093,0.041,0.182,0.041,0.268c0,0.085,0.01,0.167,0.037,0.246c0.025,0.078,0.037,0.162,0.029,0.249
		c-0.006,0.085-0.004,0.159,0.01,0.226V38.632z M111.643,39.462c0.023-0.066,0.037-0.16,0.037-0.285s-0.014-0.223-0.037-0.289
		v-0.334c-0.016-0.053-0.016-0.104-0.01-0.15c0.004-0.045-0.006-0.095-0.031-0.147c-0.025-0.104-0.043-0.206-0.047-0.308
		c-0.01-0.098-0.025-0.192-0.051-0.284c0-0.069-0.014-0.142-0.041-0.218c-0.037-0.145-0.078-0.289-0.119-0.435
		c-0.035-0.146-0.094-0.291-0.154-0.437c-0.295-0.671-0.713-1.214-1.26-1.63c-0.543-0.414-1.305-0.62-2.279-0.62
		c-0.027,0.012-0.053,0.014-0.09,0.009c-0.031-0.005-0.062-0.002-0.088,0.011c-0.051,0.012-0.105,0.016-0.16,0.009
		c-0.051-0.007-0.111,0.003-0.176,0.028c-0.145,0.027-0.289,0.059-0.426,0.092c-0.137,0.031-0.266,0.075-0.385,0.126
		c-0.551,0.237-0.99,0.567-1.316,0.988c-0.319,0.424-0.583,0.931-0.778,1.524c-0.036,0.143-0.067,0.285-0.088,0.424
		c-0.021,0.138-0.052,0.279-0.088,0.424c-0.013,0.052-0.021,0.103-0.021,0.148s-0.005,0.096-0.021,0.147
		c-0.025,0.067-0.036,0.138-0.021,0.218s0.016,0.152,0,0.217c-0.025,0.066-0.041,0.191-0.046,0.365
		c-0.006,0.178,0,0.301,0.025,0.367v0.215c0.016,0.055,0.021,0.111,0.021,0.17c0,0.061,0.007,0.115,0.021,0.168
		c0,0.053,0.002,0.102,0.011,0.146c0.005,0.047,0.01,0.098,0.01,0.148c0.039,0.145,0.067,0.289,0.088,0.434
		c0.021,0.145,0.057,0.283,0.108,0.418c0.144,0.42,0.324,0.812,0.533,1.172c0.209,0.363,0.476,0.656,0.794,0.885
		c0.062,0.062,0.135,0.113,0.207,0.154c0.07,0.043,0.146,0.084,0.227,0.119c0.145,0.092,0.299,0.166,0.463,0.217
		c0.16,0.053,0.342,0.107,0.521,0.16c0.066,0.025,0.131,0.037,0.188,0.031c0.061-0.01,0.123-0.006,0.189,0.01
		c0.078,0.025,0.156,0.037,0.238,0.037h0.256h0.158c0.066-0.012,0.129-0.018,0.18-0.012c0.051,0.012,0.107,0,0.174-0.025
		c0.135-0.031,0.266-0.053,0.398-0.072c0.131-0.021,0.256-0.057,0.377-0.107c0.562-0.223,1.006-0.512,1.328-0.867
		c0.322-0.357,0.602-0.816,0.824-1.387c0.062-0.145,0.113-0.301,0.146-0.473c0.035-0.172,0.076-0.342,0.127-0.512l0.062-0.477
		c0.01-0.053,0.02-0.107,0.02-0.168v-0.189V39.462z"/>
	<path fill="#1D1D1B" d="M117.41,32.072h1.6c0.145,0,0.287-0.003,0.428-0.011c0.139-0.007,0.256,0.018,0.363,0.069
		c0.131,0.054,0.234,0.133,0.307,0.237c0.072,0.106,0.139,0.212,0.207,0.316l0.711,1.125c0.463,0.752,0.928,1.5,1.395,2.243
		c0.465,0.745,0.932,1.491,1.393,2.241c0.223,0.357,0.445,0.717,0.66,1.078c0.219,0.361,0.447,0.715,0.684,1.059
		c0.051,0.078,0.102,0.156,0.148,0.238c0.047,0.076,0.107,0.15,0.186,0.215c0.025,0.027,0.062,0.053,0.098,0.08
		c0.043,0.023,0.084,0.023,0.119,0c0.094-0.027,0.139-0.086,0.139-0.18c0-0.09,0.016-0.193,0.043-0.297
		c0.012-0.094,0.014-0.193,0.01-0.305c-0.008-0.113-0.01-0.221-0.01-0.324V38.61v-4.582v-0.752c0-0.067-0.006-0.133-0.012-0.197
		c-0.004-0.066-0.004-0.124,0.012-0.178v-0.217c0-0.184,0.039-0.331,0.117-0.436c0.064-0.091,0.152-0.145,0.264-0.158
		c0.113-0.012,0.244-0.019,0.389-0.019h1.207h0.314c0.104,0,0.195,0.013,0.275,0.04c0.174,0.065,0.262,0.181,0.277,0.346
		c0.016,0.164,0.02,0.359,0.02,0.582v2.172v8.279v1.664c0,0.145,0.006,0.289,0.01,0.434c0.006,0.145-0.014,0.258-0.072,0.336
		c-0.049,0.076-0.113,0.127-0.184,0.148c-0.072,0.016-0.162,0.041-0.266,0.068h-0.693h-1.086h-0.346
		c-0.113,0-0.207-0.021-0.289-0.062c-0.143-0.062-0.252-0.154-0.336-0.264c-0.078-0.113-0.158-0.232-0.232-0.367
		c-0.121-0.184-0.236-0.371-0.352-0.562c-0.107-0.191-0.223-0.381-0.344-0.561l-2.963-4.744c-0.186-0.305-0.367-0.596-0.543-0.881
		c-0.178-0.283-0.361-0.577-0.541-0.877c-0.072-0.093-0.145-0.209-0.23-0.348c-0.084-0.139-0.199-0.207-0.346-0.207
		c-0.105,0.091-0.162,0.196-0.168,0.315c-0.004,0.118-0.01,0.271-0.01,0.454v1.385v4.721v0.773c0,0.068,0.006,0.131,0.01,0.195
		c0.006,0.068-0.004,0.131-0.027,0.197v0.217c0,0.211-0.035,0.361-0.102,0.453c-0.066,0.084-0.154,0.125-0.268,0.141
		c-0.109,0.016-0.238,0.021-0.383,0.021h-1.203h-0.318c-0.104,0-0.199-0.018-0.277-0.041c-0.172-0.068-0.266-0.188-0.285-0.355
		c-0.021-0.172-0.031-0.369-0.031-0.59v-2.277v-7.921v-1.84v-0.451c0-0.16,0.027-0.285,0.076-0.377
		c0.059-0.093,0.148-0.158,0.281-0.198c0.023,0,0.055-0.005,0.088-0.011C117.354,32.076,117.383,32.072,117.41,32.072"/>
	<path fill="#1D1D1B" d="M169.049,1.632c-20.359,0-36.869,16.51-36.869,36.871c0,20.365,16.51,36.865,36.869,36.865
		c20.363,0,36.869-16.5,36.869-36.865C205.918,18.142,189.412,1.632,169.049,1.632 M146.891,42.091v0.352
		c-0.027,0.152-0.043,0.287-0.068,0.416c-0.021,0.135-0.047,0.262-0.088,0.396c-0.078,0.238-0.162,0.455-0.258,0.656
		c-0.088,0.197-0.203,0.387-0.334,0.568c-0.053,0.07-0.107,0.123-0.16,0.17c-0.053,0.045-0.1,0.104-0.137,0.166
		c-0.066,0.082-0.137,0.152-0.221,0.225c-0.078,0.08-0.16,0.146-0.254,0.207c-0.066,0.059-0.137,0.109-0.209,0.166
		c-0.068,0.053-0.15,0.104-0.225,0.154c-0.227,0.15-0.459,0.264-0.701,0.357c-0.246,0.086-0.496,0.189-0.76,0.273
		c-0.188,0.066-0.379,0.107-0.574,0.133c-0.199,0.016-0.396,0.047-0.594,0.084c-0.09,0.031-0.178,0.035-0.264,0.031
		c-0.09-0.006-0.172,0.004-0.25,0.035h-0.162c-0.018,0-0.057-0.004-0.107-0.016c-0.045-0.006-0.082-0.006-0.107,0.016
		c-0.064,0.006-0.176,0.016-0.336,0.016c-0.154,0-0.268-0.01-0.334-0.016h-0.197c-0.094-0.031-0.186-0.041-0.287-0.035
		c-0.1,0.004-0.188,0-0.266-0.031c-0.066,0-0.127,0-0.18-0.006c-0.051-0.012-0.109-0.016-0.176-0.031
		c-0.16-0.041-0.324-0.072-0.496-0.098c-0.17-0.025-0.33-0.072-0.471-0.117c-0.648-0.219-1.217-0.48-1.707-0.801
		c-0.484-0.322-0.893-0.75-1.219-1.271c-0.211-0.324-0.375-0.695-0.494-1.135c-0.025-0.07-0.045-0.154-0.051-0.232
		c-0.006-0.082-0.021-0.166-0.047-0.258c-0.025-0.102-0.051-0.234-0.062-0.387c-0.014-0.152,0.012-0.266,0.08-0.346
		c0.068-0.107,0.162-0.17,0.287-0.188c0.123-0.02,0.268-0.029,0.422-0.029h1.244h0.336c0.119,0,0.227,0.02,0.314,0.059
		c0.15,0.068,0.232,0.18,0.258,0.328c0.031,0.148,0.078,0.303,0.139,0.463c0.053,0.162,0.125,0.301,0.199,0.436
		c0.08,0.129,0.164,0.258,0.256,0.377c0.066,0.076,0.139,0.154,0.217,0.217c0.078,0.066,0.166,0.123,0.242,0.174
		c0.285,0.188,0.643,0.342,1.066,0.455c0.09,0.031,0.178,0.041,0.266,0.041c0.082,0,0.182,0.016,0.289,0.043h0.098
		c0.104,0.023,0.248,0.035,0.434,0.035c0.184,0,0.326-0.012,0.434-0.035c0.041-0.018,0.104-0.018,0.197-0.018
		c0.068-0.02,0.137-0.031,0.211-0.035c0.072-0.006,0.139-0.02,0.203-0.047c0.449-0.123,0.803-0.277,1.066-0.48
		c0.268-0.189,0.449-0.521,0.557-0.984c0.027-0.096,0.031-0.199,0.012-0.316c-0.027-0.119-0.047-0.207-0.068-0.273
		c-0.139-0.355-0.361-0.635-0.676-0.832c-0.039-0.023-0.113-0.066-0.217-0.117c-0.201-0.121-0.418-0.217-0.662-0.293
		c-0.246-0.068-0.482-0.145-0.723-0.219c-0.088-0.031-0.18-0.051-0.266-0.072c-0.088-0.02-0.182-0.047-0.287-0.068
		c-0.209-0.066-0.42-0.123-0.643-0.17c-0.217-0.045-0.424-0.1-0.619-0.166c-0.068-0.027-0.119-0.041-0.16-0.041
		s-0.084-0.012-0.139-0.035c-0.1-0.033-0.197-0.051-0.283-0.086c-0.09-0.023-0.188-0.049-0.291-0.078
		c-0.305-0.107-0.588-0.211-0.863-0.322c-0.281-0.113-0.537-0.242-0.773-0.387c-0.303-0.197-0.582-0.424-0.83-0.694
		c-0.252-0.261-0.449-0.565-0.59-0.907c-0.061-0.118-0.098-0.239-0.123-0.364c-0.025-0.133-0.059-0.262-0.1-0.406
		c-0.023-0.117-0.047-0.292-0.059-0.519c-0.012-0.222-0.01-0.403,0.021-0.548c0.014-0.054,0.02-0.129,0.02-0.237
		c0.035-0.146,0.072-0.282,0.1-0.416c0.023-0.127,0.064-0.263,0.115-0.394c0.203-0.46,0.449-0.853,0.76-1.18
		c0.312-0.316,0.67-0.612,1.078-0.876c0.264-0.16,0.545-0.281,0.854-0.371c0.299-0.092,0.623-0.183,0.965-0.261
		c0.133-0.029,0.258-0.044,0.387-0.052c0.123-0.004,0.25-0.023,0.381-0.048c0.041-0.012,0.104-0.012,0.191,0
		c0.082,0.01,0.139,0.005,0.168-0.017c2.557-0.041,4.312,0.715,5.277,2.271c0.133,0.213,0.232,0.426,0.305,0.649
		c0.072,0.226,0.143,0.467,0.207,0.732c0.021,0.105,0.035,0.229,0.027,0.369c-0.006,0.133-0.035,0.237-0.086,0.301
		c-0.066,0.076-0.16,0.13-0.277,0.153c-0.119,0.018-0.254,0.028-0.393,0.028h-1.244h-0.359c-0.117,0-0.219-0.014-0.295-0.04
		c-0.16-0.067-0.26-0.175-0.295-0.319c-0.041-0.145-0.094-0.289-0.16-0.433c-0.051-0.133-0.123-0.267-0.217-0.412
		c-0.094-0.147-0.193-0.259-0.299-0.343c-0.184-0.13-0.361-0.242-0.531-0.329c-0.16-0.069-0.352-0.125-0.584-0.174
		c-0.232-0.043-0.465-0.074-0.709-0.087c-0.246-0.01-0.488-0.003-0.727,0.021c-0.232,0.029-0.443,0.078-0.629,0.157
		c-0.299,0.131-0.543,0.283-0.701,0.466c-0.166,0.177-0.279,0.442-0.348,0.798c-0.027,0.092-0.035,0.198-0.02,0.309
		c0.018,0.111,0.035,0.202,0.057,0.264c0.107,0.275,0.258,0.474,0.447,0.579c0.193,0.12,0.418,0.229,0.684,0.332
		c0.145,0.063,0.293,0.112,0.443,0.148c0.154,0.031,0.305,0.073,0.465,0.128c0.357,0.118,0.723,0.219,1.096,0.306
		c0.375,0.088,0.752,0.18,1.117,0.288c0.062,0.029,0.129,0.036,0.197,0.036c0.066,0,0.135,0.018,0.199,0.041
		c0.26,0.094,0.533,0.18,0.818,0.262c0.285,0.076,0.541,0.186,0.76,0.332c0.359,0.229,0.664,0.445,0.916,0.668
		c0.264,0.229,0.5,0.518,0.723,0.875c0.068,0.107,0.125,0.219,0.17,0.354c0.047,0.129,0.098,0.266,0.15,0.396
		c0.01,0.037,0.021,0.078,0.021,0.109c0,0.035,0.002,0.064,0.016,0.088c0.051,0.207,0.078,0.473,0.078,0.789
		C146.92,41.954,146.92,42.026,146.891,42.091 M159.18,34.266c-0.064,0.225-0.193,0.34-0.395,0.355
		c-0.197,0.014-0.436,0.016-0.713,0.016h-2.012c-0.264,0-0.492,0.014-0.68,0.033c-0.193,0.021-0.322,0.145-0.389,0.366
		c-0.016,0.066-0.016,0.125,0,0.177c0.016,0.053,0.01,0.111-0.02,0.179c-0.012,0.075-0.02,0.167-0.01,0.268
		c0.006,0.098,0.01,0.185,0.01,0.264v1.758v5.695v1.857c0,0.211-0.01,0.391-0.027,0.547c-0.02,0.148-0.105,0.258-0.25,0.32
		c-0.088,0.023-0.199,0.041-0.314,0.041h-0.338h-1.342c-0.145,0-0.279-0.006-0.402-0.021c-0.129-0.006-0.223-0.057-0.289-0.135
		c-0.068-0.107-0.1-0.246-0.1-0.406v-0.508v-1.975v-5.487v-1.687c0-0.087,0.006-0.188,0.01-0.28
		c0.006-0.104-0.004-0.192-0.029-0.269c-0.016-0.067-0.016-0.129,0-0.18c0.01-0.056,0.004-0.105-0.018-0.158
		c-0.064-0.222-0.205-0.345-0.406-0.366c-0.205-0.02-0.443-0.033-0.723-0.033h-1.836c-0.146,0-0.311,0.011-0.486,0.014
		c-0.176,0.005-0.32,0-0.424-0.029c-0.105-0.039-0.186-0.096-0.236-0.176c-0.041-0.067-0.062-0.154-0.068-0.256
		c-0.01-0.108-0.01-0.216-0.01-0.321v-0.969c0-0.167,0.01-0.318,0.029-0.452c0.018-0.131,0.08-0.231,0.188-0.292
		c0.041-0.028,0.111-0.056,0.217-0.083h0.098h7.902h2.02c0.17,0,0.334,0,0.5,0.008c0.164,0.006,0.299,0.047,0.406,0.111
		c0.037,0.024,0.068,0.069,0.088,0.129c0.021,0.058,0.037,0.123,0.049,0.188v0.098c0.014,0.049,0.02,0.112,0.02,0.173v0.205v0.765
		c0,0.095,0.004,0.18,0.012,0.271C159.215,34.103,159.209,34.189,159.18,34.266 M174.08,39.44v0.258
		c-0.027,0.133-0.037,0.27-0.037,0.42c0,0.145-0.016,0.289-0.047,0.432c-0.021,0.088-0.041,0.182-0.057,0.275
		s-0.031,0.188-0.057,0.277c-0.068,0.234-0.131,0.469-0.189,0.691c-0.059,0.227-0.137,0.438-0.225,0.648
		c-0.396,0.926-0.934,1.697-1.605,2.305c-0.668,0.615-1.498,1.084-2.49,1.416c-0.145,0.045-0.285,0.092-0.43,0.117
		s-0.291,0.057-0.434,0.076c-0.068,0.031-0.139,0.041-0.207,0.041c-0.076,0-0.145,0.006-0.211,0.018l-0.65,0.066
		c-0.051,0.006-0.15,0.016-0.279,0.006c-0.129-0.006-0.211-0.018-0.258-0.031c-0.062-0.01-0.127-0.016-0.184-0.01
		c-0.059,0.004-0.121,0.004-0.188-0.012h-0.217c-0.104-0.025-0.207-0.041-0.295-0.047c-0.098-0.01-0.195-0.02-0.299-0.051
		c-0.104-0.025-0.211-0.047-0.32-0.066c-0.1-0.021-0.207-0.043-0.311-0.072c-0.148-0.047-0.299-0.104-0.449-0.156
		c-0.148-0.051-0.299-0.107-0.443-0.18c-0.789-0.342-1.461-0.801-2.006-1.367c-0.549-0.578-0.99-1.254-1.334-2.053
		c-0.076-0.182-0.141-0.381-0.199-0.576c-0.053-0.207-0.109-0.412-0.174-0.625c-0.029-0.066-0.039-0.123-0.039-0.17
		s-0.01-0.094-0.021-0.145c-0.027-0.094-0.043-0.191-0.057-0.291c-0.014-0.096-0.035-0.201-0.061-0.303
		c-0.01-0.066-0.018-0.129-0.008-0.186c0.002-0.064-0.002-0.119-0.033-0.172c-0.012-0.078-0.012-0.164,0-0.246
		c0.016-0.092,0.016-0.172,0-0.246c-0.025-0.068-0.039-0.168-0.039-0.307s0.014-0.242,0.039-0.307c0.016-0.068,0.016-0.131,0-0.186
		c-0.012-0.062-0.012-0.123,0-0.191v-0.12c0.031-0.089,0.035-0.183,0.033-0.265c-0.01-0.084,0-0.167,0.029-0.244
		c0.025-0.067,0.039-0.138,0.039-0.211c0-0.072,0.014-0.137,0.037-0.205c0.066-0.229,0.119-0.443,0.16-0.665
		c0.035-0.215,0.094-0.433,0.178-0.643c0.104-0.222,0.199-0.444,0.291-0.674c0.094-0.222,0.207-0.431,0.34-0.63
		c0.398-0.634,0.848-1.16,1.363-1.578c0.512-0.42,1.137-0.784,1.879-1.087c0.168-0.071,0.346-0.122,0.543-0.16
		c0.191-0.039,0.377-0.085,0.562-0.138c0.062-0.029,0.129-0.035,0.186-0.035s0.123-0.014,0.186-0.024l0.594-0.06
		c0.025-0.013,0.064-0.013,0.109,0c0.045,0.014,0.082,0.014,0.107,0c0.939-0.024,1.748,0.07,2.432,0.288
		c0.686,0.218,1.301,0.517,1.836,0.899c0.17,0.119,0.352,0.254,0.537,0.408c0.186,0.148,0.336,0.305,0.457,0.459
		c0.064,0.07,0.129,0.134,0.193,0.21c0.064,0.07,0.121,0.139,0.176,0.206c0.15,0.212,0.295,0.425,0.439,0.64
		c0.145,0.217,0.273,0.452,0.377,0.704c0.076,0.187,0.145,0.36,0.205,0.531c0.057,0.173,0.123,0.356,0.186,0.556
		c0.041,0.131,0.072,0.265,0.104,0.405c0.021,0.143,0.055,0.277,0.094,0.422c0.025,0.098,0.041,0.183,0.041,0.27
		c0,0.085,0.01,0.167,0.041,0.246c0.025,0.08,0.037,0.164,0.025,0.249c0,0.081,0,0.161,0.012,0.228v0.158
		c0.027,0.074,0.045,0.213,0.051,0.404S174.104,39.362,174.08,39.44 M188.602,41.558l-0.121,0.533
		c-0.064,0.199-0.121,0.391-0.184,0.57c-0.059,0.188-0.139,0.363-0.229,0.539c-0.064,0.104-0.119,0.211-0.158,0.303
		c-0.041,0.098-0.092,0.197-0.154,0.283c-0.729,1.137-1.781,1.932-3.164,2.377c-0.146,0.045-0.291,0.092-0.436,0.117
		s-0.287,0.057-0.434,0.076c-0.066,0.031-0.127,0.037-0.189,0.031c-0.057-0.01-0.123,0.006-0.191,0.027
		c-0.088,0-0.18,0.01-0.262,0.01c-0.086,0.01-0.176,0.021-0.27,0.031h-0.314h-0.355c-0.119,0-0.232-0.01-0.334-0.041
		c-0.041-0.012-0.107-0.018-0.195-0.018c-0.096-0.01-0.193-0.023-0.277-0.041c-0.098-0.014-0.195-0.02-0.299-0.041
		c-0.135-0.035-0.264-0.066-0.387-0.098c-0.123-0.025-0.254-0.055-0.381-0.098c-0.123-0.037-0.24-0.078-0.363-0.129
		c-0.117-0.047-0.227-0.094-0.33-0.145c-0.793-0.346-1.459-0.807-2.008-1.379c-0.547-0.566-0.99-1.246-1.334-2.043
		c-0.08-0.197-0.141-0.395-0.197-0.59c-0.053-0.201-0.109-0.404-0.176-0.619c-0.025-0.059-0.041-0.117-0.041-0.16
		c0-0.049-0.006-0.092-0.021-0.15c-0.025-0.117-0.047-0.244-0.059-0.373c-0.014-0.139-0.031-0.262-0.057-0.377
		c-0.029-0.068-0.037-0.127-0.029-0.168c0.006-0.047,0-0.098-0.016-0.15v-0.373c-0.021-0.068-0.037-0.17-0.037-0.299
		c0-0.127,0.016-0.23,0.037-0.295c0.016-0.043,0.021-0.082,0.016-0.131c-0.008-0.043-0.016-0.082-0.016-0.105v-0.182
		c0.029-0.102,0.047-0.217,0.053-0.336c0.008-0.117,0.018-0.234,0.029-0.351c0.027-0.111,0.047-0.212,0.057-0.31
		c0.016-0.097,0.037-0.2,0.062-0.308c0.057-0.181,0.1-0.365,0.135-0.544c0.041-0.17,0.096-0.344,0.16-0.504
		c0.066-0.171,0.139-0.344,0.209-0.513s0.156-0.328,0.248-0.472c0.211-0.373,0.43-0.699,0.652-0.989
		c0.064-0.091,0.141-0.179,0.217-0.259c0.078-0.083,0.16-0.157,0.232-0.237c0.33-0.327,0.682-0.605,1.043-0.836
		c0.361-0.232,0.768-0.439,1.232-0.623c0.158-0.071,0.32-0.122,0.49-0.167c0.176-0.048,0.352-0.093,0.537-0.131
		c0.078-0.029,0.16-0.035,0.238-0.035c0.076,0,0.148-0.02,0.217-0.044c0.104-0.012,0.209-0.019,0.303-0.028
		c0.104-0.008,0.203-0.015,0.311-0.029c0.023-0.015,0.062-0.015,0.098,0c0.041,0.015,0.072,0.015,0.098,0
		c1.385-0.026,2.525,0.211,3.422,0.71c0.895,0.5,1.605,1.165,2.133,1.998c0.145,0.225,0.264,0.448,0.354,0.68
		c0.096,0.229,0.178,0.486,0.26,0.76c0.025,0.094,0.053,0.198,0.078,0.314c0.023,0.119,0.016,0.235-0.023,0.337
		c-0.023,0.078-0.072,0.131-0.146,0.15c-0.072,0.02-0.16,0.041-0.248,0.065h-0.154c-0.082,0.026-0.17,0.038-0.27,0.031
		c-0.098-0.005-0.191-0.011-0.285-0.011c-0.119,0-0.262,0.006-0.428,0.011c-0.164,0.007-0.318,0.007-0.48,0
		c-0.158-0.005-0.303-0.018-0.438-0.044c-0.133-0.017-0.229-0.044-0.293-0.083c-0.105-0.089-0.188-0.221-0.238-0.374
		c-0.051-0.159-0.117-0.299-0.199-0.418c-0.244-0.434-0.576-0.775-0.984-1.027c-0.277-0.167-0.586-0.306-0.93-0.413
		c-0.225-0.078-0.506-0.121-0.844-0.121c-0.33,0-0.627,0.034-0.877,0.104c-0.109,0.026-0.201,0.049-0.285,0.065
		c-0.082,0.021-0.178,0.054-0.266,0.091c-0.898,0.38-1.533,1.013-1.898,1.895c-0.064,0.157-0.127,0.321-0.176,0.495
		c-0.055,0.172-0.113,0.354-0.178,0.531c-0.016,0.098-0.031,0.181-0.041,0.262c-0.012,0.074-0.025,0.165-0.041,0.254
		c-0.027,0.08-0.031,0.164-0.027,0.249c0.006,0.081-0.004,0.175-0.033,0.265c-0.023,0.109-0.033,0.217-0.031,0.328
		c0.014,0.113,0.014,0.217,0.014,0.324c0,0.055,0,0.102-0.014,0.156c-0.002,0.053-0.002,0.109,0.014,0.162v0.172
		c0.025,0.072,0.035,0.135,0.031,0.199c-0.01,0.07,0,0.135,0.027,0.197c0,0.086,0.008,0.189,0.041,0.32
		c0.023,0.145,0.049,0.281,0.076,0.402c0.025,0.131,0.061,0.248,0.1,0.365c0.186,0.553,0.418,1.025,0.713,1.418
		c0.289,0.383,0.668,0.707,1.146,0.951c0.146,0.072,0.297,0.129,0.451,0.17c0.16,0.053,0.33,0.094,0.518,0.15
		c0.061,0.016,0.127,0.025,0.189,0.031c0.057,0.006,0.119,0.01,0.186,0.01h0.154c0.066,0.02,0.156,0.037,0.26,0.031
		c0.105-0.012,0.189-0.021,0.256-0.031c0.078,0,0.141-0.01,0.182-0.02c0.158-0.027,0.305-0.053,0.443-0.084
		c0.137-0.021,0.27-0.066,0.402-0.139c0.305-0.131,0.566-0.301,0.779-0.518c0.217-0.225,0.41-0.469,0.586-0.744
		c0.076-0.135,0.143-0.275,0.195-0.436c0.051-0.158,0.111-0.318,0.178-0.473c0.043-0.148,0.078-0.277,0.121-0.396
		c0.041-0.119,0.123-0.213,0.254-0.273c0.084-0.031,0.18-0.043,0.301-0.043h0.338h1.203h0.361c0.123,0,0.23,0.029,0.309,0.08
		c0.094,0.066,0.139,0.17,0.145,0.314C188.658,41.284,188.641,41.427,188.602,41.558 M203.064,46.142h-0.477h-1.561
		c-0.145,0-0.289,0.004-0.434,0.01c-0.145,0.004-0.275,0-0.395-0.031c-0.145-0.051-0.258-0.129-0.346-0.227
		s-0.164-0.207-0.248-0.326c-0.076-0.102-0.154-0.211-0.227-0.324s-0.145-0.227-0.227-0.346c-0.357-0.553-0.723-1.094-1.084-1.621
		c-0.371-0.525-0.744-1.07-1.111-1.627c-0.143-0.219-0.287-0.434-0.424-0.645c-0.137-0.213-0.277-0.418-0.422-0.633
		c-0.055-0.07-0.119-0.143-0.199-0.225c-0.078-0.092-0.186-0.119-0.316-0.096c-0.135,0.045-0.264,0.131-0.398,0.27
		c-0.131,0.139-0.236,0.248-0.332,0.348c-0.07,0.062-0.127,0.133-0.201,0.205c-0.062,0.072-0.133,0.145-0.193,0.207
		c-0.096,0.094-0.176,0.184-0.258,0.266c-0.078,0.086-0.145,0.189-0.199,0.303c-0.041,0.084-0.059,0.17-0.064,0.26
		c-0.008,0.098-0.016,0.193-0.016,0.297v0.26c-0.01,0.066-0.016,0.141-0.008,0.227c0.008,0.082,0.008,0.156,0.008,0.229v0.93v1.396
		c0,0.15,0,0.291-0.008,0.418c-0.008,0.135-0.043,0.238-0.111,0.32c-0.066,0.078-0.16,0.129-0.293,0.135
		c-0.135,0.016-0.271,0.021-0.414,0.021h-1.348c-0.143,0-0.283-0.006-0.408-0.006c-0.133-0.012-0.246-0.047-0.34-0.113
		s-0.139-0.186-0.139-0.361V45.13v-2.293v-7.88v-1.836c0-0.145-0.006-0.296-0.01-0.455c-0.006-0.157,0.014-0.285,0.068-0.374
		c0.08-0.091,0.184-0.156,0.316-0.199c0.027-0.014,0.053-0.021,0.078-0.013c0.031,0.006,0.053,0.004,0.082-0.008h1.52
		c0.252,0,0.459,0.008,0.635,0.028c0.17,0.021,0.291,0.137,0.355,0.347c0.012,0.063,0.016,0.136,0.016,0.208v0.228v0.792v2.567
		v0.437v0.354c0,0.116,0.021,0.224,0.064,0.315c0.008,0.026,0.033,0.053,0.064,0.075c0.031,0.033,0.066,0.043,0.066,0.043
		c0.115,0.027,0.209,0,0.291-0.08c0.086-0.08,0.148-0.137,0.189-0.174c0.104-0.107,0.207-0.215,0.312-0.322
		c0.105-0.103,0.209-0.211,0.297-0.335c0.041-0.023,0.098-0.072,0.16-0.135c0.051-0.051,0.105-0.107,0.154-0.166
		c0.057-0.065,0.107-0.126,0.141-0.191c0.029-0.025,0.053-0.048,0.082-0.062c0.025-0.011,0.051-0.029,0.078-0.056
		c0.062-0.106,0.143-0.19,0.24-0.268c0.09-0.071,0.168-0.153,0.234-0.247c0.08-0.106,0.152-0.19,0.215-0.261
		c0.027-0.009,0.059-0.036,0.098-0.074c0.158-0.209,0.336-0.402,0.539-0.57c0.195-0.174,0.371-0.367,0.531-0.577l0.098-0.093
		c0.041-0.046,0.076-0.079,0.119-0.121c0.041-0.043,0.076-0.086,0.121-0.14c0.012-0.028,0.023-0.046,0.039-0.053
		c0.01-0.005,0.031-0.022,0.057-0.046c0.076-0.053,0.137-0.129,0.18-0.22c0.025-0.024,0.057-0.054,0.098-0.078
		c0.041-0.026,0.072-0.055,0.1-0.077c0.035-0.068,0.082-0.127,0.137-0.179c0.055-0.056,0.105-0.108,0.156-0.181
		c0.025-0.023,0.053-0.043,0.07-0.056c0.023-0.015,0.043-0.035,0.068-0.061c0.092-0.135,0.197-0.244,0.316-0.346
		c0.121-0.099,0.268-0.164,0.459-0.207c0.098-0.028,0.225-0.034,0.361-0.029c0.139,0.001,0.266,0.009,0.389,0.009h1.518
		c0.145,0,0.303-0.008,0.469-0.009c0.158-0.005,0.287,0.021,0.381,0.092c0.078,0.061,0.1,0.138,0.059,0.223
		c-0.037,0.088-0.072,0.155-0.094,0.205c-0.072,0.07-0.135,0.133-0.203,0.188c-0.066,0.062-0.133,0.121-0.195,0.19
		c-0.092,0.106-0.182,0.205-0.268,0.297c-0.082,0.093-0.18,0.185-0.285,0.278c-0.459,0.459-0.926,0.927-1.381,1.402
		c-0.461,0.474-0.926,0.94-1.385,1.398c-0.213,0.24-0.436,0.464-0.672,0.675c-0.092,0.092-0.18,0.18-0.262,0.263
		c-0.072,0.091-0.129,0.206-0.156,0.353c-0.025,0.102-0.004,0.205,0.061,0.303c0.07,0.101,0.121,0.182,0.156,0.245
		c0.133,0.197,0.27,0.392,0.406,0.585s0.27,0.381,0.41,0.584c0.547,0.793,1.102,1.568,1.656,2.346
		c0.555,0.766,1.105,1.551,1.662,2.334l0.703,1.006c0.055,0.082,0.111,0.162,0.17,0.234c0.066,0.066,0.117,0.148,0.17,0.221
		c0.041,0.072,0.088,0.16,0.139,0.279c0.053,0.119,0.031,0.211-0.059,0.277C203.369,46.114,203.234,46.142,203.064,46.142"/>
	<path fill="#1D1D1B" d="M170.992,38.552c-0.008-0.049-0.01-0.1-0.006-0.146c0.006-0.046-0.002-0.097-0.031-0.149
		c-0.02-0.102-0.041-0.21-0.047-0.308c-0.01-0.096-0.025-0.195-0.051-0.284c0-0.063-0.01-0.136-0.041-0.216
		c-0.035-0.143-0.074-0.291-0.113-0.436c-0.041-0.144-0.098-0.292-0.16-0.435c-0.287-0.669-0.713-1.218-1.258-1.629
		c-0.541-0.418-1.305-0.625-2.277-0.625c-0.029,0.013-0.057,0.015-0.092,0.01c-0.031-0.002-0.062-0.002-0.09,0.012
		c-0.051,0.011-0.105,0.015-0.156,0.006c-0.049-0.006-0.111,0.005-0.178,0.03c-0.145,0.027-0.289,0.059-0.424,0.09
		c-0.139,0.034-0.27,0.077-0.387,0.128c-0.551,0.237-0.988,0.565-1.314,0.988c-0.322,0.427-0.58,0.931-0.781,1.524
		c-0.037,0.144-0.066,0.283-0.082,0.425c-0.027,0.137-0.053,0.278-0.094,0.423c-0.016,0.052-0.021,0.102-0.021,0.148
		c0,0.046-0.006,0.097-0.02,0.147c-0.023,0.063-0.031,0.138-0.021,0.22c0.016,0.076,0.016,0.15,0,0.215
		c-0.025,0.066-0.041,0.191-0.047,0.365c-0.006,0.18,0.006,0.303,0.031,0.367v0.215c0.014,0.055,0.016,0.111,0.016,0.17
		c0,0.061,0.01,0.117,0.021,0.168c0,0.053,0.004,0.104,0.01,0.148c0.008,0.045,0.01,0.096,0.01,0.146
		c0.041,0.145,0.068,0.293,0.088,0.438c0.027,0.141,0.061,0.279,0.109,0.414c0.146,0.424,0.324,0.812,0.537,1.172
		c0.209,0.367,0.475,0.656,0.785,0.885c0.066,0.062,0.135,0.117,0.211,0.16c0.072,0.037,0.145,0.072,0.227,0.117
		c0.145,0.088,0.299,0.162,0.467,0.213c0.166,0.057,0.338,0.104,0.52,0.16c0.066,0.025,0.131,0.037,0.188,0.031
		c0.059-0.006,0.125-0.006,0.188,0.01c0.08,0.02,0.158,0.041,0.244,0.041h0.252h0.156c0.066-0.021,0.125-0.021,0.18-0.01
		c0.051,0.006,0.113-0.012,0.178-0.031c0.135-0.025,0.264-0.047,0.395-0.072c0.129-0.016,0.254-0.053,0.377-0.107
		c0.562-0.223,1.006-0.512,1.332-0.867c0.326-0.357,0.594-0.816,0.82-1.387c0.068-0.145,0.119-0.303,0.148-0.473
		c0.033-0.172,0.074-0.342,0.131-0.512l0.057-0.477c0.016-0.051,0.016-0.107,0.016-0.168v-0.189v-0.154
		c0.033-0.068,0.047-0.166,0.047-0.287c0-0.125-0.014-0.223-0.047-0.289V38.552z"/>
</g>
</svg>
